<?xml version="1.0" encoding="UTF-8"?>
<svg xmlns="http://www.w3.org/2000/svg" xmlns:xlink="http://www.w3.org/1999/xlink" width="250px" height="267px" viewBox="0 0 250 266" version="1.1">
<g id="surface1">
<path style=" stroke:none;fill-rule:nonzero;fill:rgb(92.941176%,59.607843%,60%);fill-opacity:1;" d="M 0 0 L 0 0.339844 C 0.0820312 0.253906 0.253906 0.0820312 0.339844 0 Z M 114.945312 1.234375 C 105.726562 1.332031 99.515625 12.792969 104.230469 20.949219 C 106.636719 30.332031 111.347656 38.699219 116.003906 47.121094 C 116.132812 49.617188 118.125 51.542969 118.339844 54.027344 C 113.933594 53.078125 110.601562 56.5 106.382812 56.613281 C 106.582031 53.570312 109.75 50.242188 105.699219 48.277344 C 93.410156 43.222656 82.867188 55.734375 74.445312 62.359375 C 75.289062 46.0625 76.425781 21.113281 57.804688 12.660156 C 48.753906 12.515625 42.234375 23.335938 45.734375 31.679688 C 45.574219 40.066406 50.085938 47.539062 50.730469 55.773438 C 48.597656 56.164062 47.960938 53.398438 45.847656 53.351562 C 38.335938 46.816406 31.175781 38.160156 20.503906 37.570312 C 16.851562 36.792969 14.863281 40.648438 11.472656 41.066406 C 9.707031 43.847656 11.480469 47.390625 10.679688 50.457031 C 16.191406 63.933594 29.867188 72.277344 43.015625 76.824219 C 42.679688 77.328125 42.371094 77.859375 42.078125 78.390625 C 28.328125 79.855469 13.59375 83.195312 4.019531 93.941406 C 2.109375 98.992188 -0.550781 106.273438 4.503906 110.304688 C 10.816406 114.847656 19.582031 116.894531 26.679688 112.980469 C 33.792969 110.207031 41.539062 108.855469 47.785156 104.320312 C 48 104.441406 48.429688 104.679688 48.644531 104.800781 C 42.445312 113.652344 38.855469 124.167969 37.3125 134.824219 C 38.9375 141 39.617188 147.507812 42.070312 153.484375 C 43.75 156.347656 47.105469 153.875 49.597656 153.816406 C 61.203125 147.550781 67.269531 135.25 69.0625 122.546875 C 70.5625 121.378906 70.15625 118.648438 71.726562 117.292969 C 75.46875 123.429688 79.804688 130.183594 87.1875 132.152344 C 92.871094 132.234375 96.78125 127.398438 98.25 122.367188 C 104.628906 121.820312 104.84375 129.789062 109.898438 132.179688 C 127.457031 144.460938 142.691406 160.101562 154.96875 177.539062 C 154.75 177.65625 154.304688 177.890625 154.085938 178.007812 C 141.152344 167.367188 125.804688 158.003906 108.605469 156.328125 C 107.527344 159.359375 101.339844 160.429688 103.789062 165.253906 C 110.585938 168.523438 117.769531 171.074219 124.238281 175.039062 C 135.511719 182.535156 150.1875 182.953125 161.066406 190.761719 C 164.28125 192.792969 158.921875 185.109375 163.4375 187.292969 C 176.355469 205.039062 186.625 224.742188 193.816406 245.433594 C 194.636719 249.78125 189.820312 247.015625 188.152344 245.703125 C 183.386719 250.535156 180.894531 238 176.394531 238.230469 C 179.738281 240.414062 180.089844 244.527344 182.625 247.371094 C 182.480469 247.566406 182.1875 247.96875 182.042969 248.164062 C 178.175781 249.390625 185.257812 254.160156 186.152344 256.984375 C 191.140625 258.558594 186.613281 254.539062 186.125 252.726562 L 186.773438 252.601562 C 188.484375 253.472656 189.824219 255.171875 191.667969 255.679688 C 194.851562 254.34375 186.351562 251.902344 189.988281 250.910156 C 195.0625 248.886719 197.878906 259.269531 201.832031 254.910156 C 206.503906 252.339844 197.613281 246.5 201.660156 244.402344 C 205.378906 247.25 208.941406 251.777344 213.859375 252.9375 C 217.496094 251.371094 211.875 247.621094 213.609375 245.730469 C 220.796875 247.617188 224.378906 255.101562 230.363281 258.738281 C 234.789062 259.5 231.992188 257.09375 232.023438 254.9375 C 233.726562 254.914062 238.074219 258.296875 236.738281 254.433594 C 231.8125 252.695312 228.746094 248.109375 224.894531 244.941406 C 219.691406 246.460938 232.574219 251.3125 226.507812 252.960938 C 222.734375 244.9375 208.914062 243.664062 212.71875 232.617188 C 211.214844 205.269531 205.746094 178.0625 197.320312 151.9375 C 190.828125 137.894531 184.445312 123.199219 175.070312 110.6875 C 174.855469 107.617188 177.996094 105.628906 177.605469 102.476562 C 177.230469 94.4375 171.160156 88.554688 166.335938 82.925781 C 172.917969 78.511719 179.765625 72.921875 183.789062 65.761719 C 185.667969 58.988281 187.109375 49.027344 180.15625 44.640625 C 173.167969 42.3125 167.742188 47.984375 161.527344 49.703125 C 158.996094 47.800781 163.921875 44.320312 163.492188 41.46875 C 162.253906 36.765625 160.632812 32.054688 158.082031 27.890625 C 153.9375 21.984375 146.355469 28.46875 143.195312 32.351562 C 142.207031 33.0625 141.210938 33.78125 140.046875 34.1875 C 138.535156 20.605469 131.253906 7.339844 118.464844 1.742188 C 117.257812 1.382812 116.078125 1.222656 114.945312 1.234375 Z M 55.679688 16.519531 C 55.710938 16.519531 55.738281 16.523438 55.769531 16.523438 C 55.738281 16.523438 55.710938 16.519531 55.679688 16.519531 C 55.660156 16.519531 55.636719 16.523438 55.617188 16.523438 C 55.636719 16.523438 55.660156 16.519531 55.679688 16.519531 Z M 179.628906 57.230469 C 179.65625 57.230469 179.679688 57.238281 179.707031 57.238281 C 179.679688 57.238281 179.65625 57.234375 179.628906 57.230469 C 179.375 57.226562 179.097656 57.261719 178.796875 57.335938 C 179.097656 57.261719 179.375 57.226562 179.628906 57.230469 Z M 122.738281 97.4375 C 124.917969 98.570312 122.167969 104.039062 122.609375 107.066406 C 120.070312 117.871094 133.207031 126.628906 142.636719 122.183594 C 147.894531 118.640625 150.464844 112.265625 151.140625 106.167969 C 156.980469 106.585938 160.601562 114.542969 167.214844 112.246094 C 171.777344 112.261719 168.445312 119.40625 172.648438 119.324219 C 175.160156 122.171875 173.839844 126.28125 176.355469 129.171875 C 189.253906 151.039062 196.839844 175.765625 199.363281 200.890625 C 200.992188 211.257812 204.808594 221.328125 203.164062 231.984375 C 202.734375 234.960938 207.570312 243.273438 203.011719 242.746094 C 194.828125 216.164062 178.664062 193.050781 161.304688 171.664062 C 155.308594 162.886719 146.59375 156.207031 140.726562 147.257812 C 127.847656 132.890625 111.65625 121.558594 98.945312 107.242188 C 98.828125 104.84375 102.582031 104.707031 104.007812 103.632812 C 110.777344 103.832031 117.421875 101.546875 122.738281 97.4375 Z M 239.171875 108.328125 C 238.957031 108.328125 238.753906 108.46875 238.578125 108.820312 C 238.332031 108.871094 237.828125 108.964844 237.578125 109.011719 C 230.808594 116.609375 224.035156 125.796875 214.421875 130.765625 C 207.375 136.535156 203.128906 146.25 205.140625 155.300781 C 203.683594 164.789062 209.640625 173.328125 208.429688 182.914062 C 210.878906 185.820312 207.601562 189.835938 210.15625 192.875 C 215.511719 192.328125 210.921875 184.132812 214.472656 181.054688 C 221.167969 164.65625 231.734375 150.0625 238.804688 133.789062 C 242.550781 126.894531 242.785156 118.539062 241.078125 110.933594 C 240.847656 110.199219 239.9375 108.339844 239.171875 108.332031 Z M 149.308594 124.125 C 146.417969 125.195312 142.691406 126.183594 141.539062 129.351562 C 138.367188 139.890625 143.363281 151.074219 152.308594 156.664062 C 153.84375 154.5 151.359375 151.273438 153.050781 148.699219 C 154.128906 140.832031 158.289062 128.492188 149.308594 124.125 Z M 162.410156 135.230469 C 159.128906 140.046875 164.484375 145.527344 163.511719 150.671875 C 165.953125 166.058594 180.542969 175.304688 193.910156 180.5625 C 191.054688 167.738281 188.082031 153.101562 178.125 143.136719 C 173.480469 139.175781 166.5 140.222656 162.410156 135.230469 Z M 97.570312 177.6875 C 91.109375 178.375 85.871094 186.800781 90.84375 192.226562 C 93.472656 197.558594 98.304688 202.011719 101.9375 205.96875 C 94.058594 206.835938 81.976562 204.941406 76.976562 213.789062 C 75.507812 218.75 80.085938 222.535156 83.484375 225.269531 C 90.289062 227.097656 97.503906 226.761719 104.421875 226.125 C 104.632812 231.199219 96.710938 234.726562 99.234375 240.070312 C 100.511719 245.648438 106.773438 248.527344 112.125 247.253906 C 119.128906 244.269531 125.152344 239.027344 128.195312 231.949219 C 129.078125 232.261719 129.949219 232.617188 130.792969 233.03125 C 131.011719 233.78125 131.734375 234.1875 132.320312 234.632812 C 133.011719 236.3125 134.558594 237.410156 136.109375 238.257812 C 138.882812 241.121094 142.972656 241.71875 146.683594 242.492188 C 147.320312 246.8125 153.710938 247.890625 152.554688 252.703125 C 150.027344 254.050781 153.222656 254.851562 154.476562 255.386719 C 155.023438 257.871094 150.519531 256.359375 150.890625 259.140625 C 145.714844 260.640625 136.089844 252.285156 134.644531 261.765625 C 130.566406 261.492188 127.328125 258.21875 123.292969 257.566406 C 118.792969 255.796875 116.925781 260.164062 112.441406 260.484375 C 114.175781 263.75 118.824219 261.226562 121.746094 261.917969 C 126.609375 258.734375 131.144531 266.496094 135.894531 263.367188 C 137.792969 262.617188 135.539062 259.929688 137.640625 259.269531 C 143.371094 258.480469 147.464844 263.585938 152.671875 264.714844 C 155.875 264.652344 154.382812 261.484375 154.140625 259.683594 C 158.945312 259.449219 163.132812 262.144531 167.539062 263.359375 C 172.234375 263.046875 169.238281 258.257812 168.613281 255.648438 C 171.121094 253.941406 175.25 260.238281 177.640625 257.496094 C 175.234375 255.074219 171.382812 253.25 168.019531 252.1875 C 161.394531 251.65625 171.554688 262.097656 165.046875 260.035156 C 162.304688 251.835938 156.980469 244.894531 151.089844 238.417969 C 150.875 235.765625 153.289062 233.84375 153.449219 231.308594 C 152.183594 225.710938 147.179688 222.496094 143.402344 218.6875 C 144.835938 215.792969 149.992188 218.828125 151.320312 216.40625 C 156.558594 215.214844 162.117188 213.859375 164.410156 208.390625 C 163.46875 198.457031 152.121094 199.183594 144.96875 200.339844 C 144.773438 199.582031 144.558594 198.835938 144.335938 198.09375 C 151.773438 190.253906 138.648438 178.808594 130.492188 184.226562 C 124.976562 185.753906 122.375 191 120.230469 195.722656 C 113.761719 188.59375 107.65625 179.570312 97.570312 177.6875 Z M 119.214844 237.5625 C 119.261719 237.5625 119.3125 237.566406 119.359375 237.570312 C 119.3125 237.566406 119.261719 237.5625 119.214844 237.5625 C 119.085938 237.558594 118.960938 237.566406 118.832031 237.574219 C 118.960938 237.566406 119.085938 237.558594 119.214844 237.5625 Z M 231.203125 242.441406 C 230.167969 243.535156 227.511719 241.824219 227.621094 243.828125 C 235.082031 246.960938 241.429688 252.320312 246.910156 258.175781 C 249.992188 261.074219 248.183594 254.648438 248.648438 253.261719 C 250.191406 249.691406 242.125 247.285156 244.09375 252.113281 C 239.199219 250.75 236.054688 244.632812 231.203125 242.441406 Z M 231.203125 242.441406 "/>
<path style=" stroke:none;fill-rule:nonzero;fill:rgb(96.862745%,82.352941%,89.019608%);fill-opacity:1;" d="M 0 0 L 0 0.339844 C 0.0820312 0.253906 0.253906 0.0820312 0.339844 0 Z M 114.128906 6.574219 C 107.742188 8.765625 108.460938 17.109375 109.703125 22.351562 C 112.820312 33.667969 117.019531 45.621094 126.601562 53.144531 C 126.695312 55.53125 132.40625 57.292969 128.5 58.824219 C 116.667969 58.121094 101.410156 57.125 93.234375 67.632812 C 89.097656 69.390625 91.296875 75.570312 92.535156 77.953125 C 96.492188 78.628906 100 80.828125 104.074219 81.09375 C 104.34375 81.105469 104.890625 81.125 105.164062 81.140625 C 108.007812 80.839844 110.867188 81.199219 113.722656 81.191406 C 116.53125 81.667969 121.320312 76.976562 122.375 80.527344 C 115.4375 84.648438 107.949219 89.261719 105.527344 97.609375 C 105.917969 98.148438 106.550781 98.488281 107.210938 98.539062 C 108.628906 98.144531 109.992188 97.585938 111.300781 96.921875 C 109.78125 94.511719 112.425781 94.363281 113.921875 95.664062 C 115.375 95.488281 116.691406 94.820312 117.703125 93.765625 L 117.832031 93.457031 C 118.363281 90.46875 121.902344 91.242188 123.953125 91.992188 C 127.0625 91.246094 128.5625 85.925781 132.824219 86.96875 C 132.226562 89.394531 128.589844 90.867188 127.570312 93.5 C 128.6875 98.039062 124.84375 102.527344 125.964844 107.289062 C 125.015625 115.9375 138.648438 118.136719 140.578125 109.59375 C 143.332031 106.15625 142.84375 99.15625 147.882812 98.558594 C 148.40625 96.75 145.757812 93.515625 147.796875 92.605469 C 150.921875 97.988281 155.441406 106.535156 163.363281 107.691406 C 163.78125 100.144531 160.808594 92.878906 156.808594 86.621094 C 154.90625 84.300781 159.644531 82.351562 156.078125 80.878906 C 152.710938 80.175781 154.863281 77.058594 157.460938 77.667969 C 160.082031 74.898438 163.238281 72.671875 166.492188 70.707031 C 164.242188 69.046875 166.914062 69.03125 168.40625 68.890625 C 171.90625 65.519531 175.433594 61.964844 177.816406 57.6875 C 176.90625 56.914062 177.886719 56.511719 178.609375 56.277344 C 179.339844 55.359375 179.9375 54.347656 180.371094 53.257812 C 172.917969 46.257812 159.980469 50.511719 155.113281 57.414062 C 153.878906 56.324219 152.171875 56.03125 150.894531 55.042969 C 148.96875 53.199219 150.246094 49.601562 152.246094 48.257812 L 152.488281 48.019531 C 154.710938 42.574219 153.972656 36.566406 155.3125 30.914062 C 154.863281 28.941406 151.457031 30.5 150.1875 31.546875 C 142.5 34.183594 141.960938 43.386719 139.070312 49.691406 C 136.59375 51.492188 136.625 47.652344 136.503906 46.273438 C 133.367188 44.6875 133.804688 40.5 132.632812 37.628906 C 130.445312 37.503906 130.070312 36.285156 132.277344 35.589844 C 131.667969 33.640625 130.617188 31.878906 129.503906 30.183594 C 128.277344 30.097656 127.4375 29.890625 128.671875 28.855469 C 127.121094 27.792969 126.640625 25.917969 125.972656 24.269531 C 125.300781 23.867188 124.683594 23.429688 125.097656 22.578125 C 122.417969 16.597656 117.949219 11.800781 114.128906 6.574219 Z M 53.875 17.214844 C 53.566406 17.203125 53.253906 17.21875 52.921875 17.261719 C 46.109375 33.539062 52.796875 52.269531 58.292969 67.757812 C 57.15625 68.53125 56.230469 69.996094 54.8125 70.144531 C 51.414062 62.800781 45.398438 57.171875 39.425781 51.890625 C 34.519531 45.914062 27.648438 41.09375 19.816406 40.191406 C 16.628906 40.140625 17.121094 44.054688 16.664062 46.214844 C 20.980469 50.546875 25.433594 54.761719 28.566406 60.082031 C 33.117188 64.25 39.195312 66.324219 44.316406 69.742188 C 44.914062 69.96875 45.511719 70.191406 46.082031 70.472656 C 48.007812 71.402344 49.550781 73.109375 49.480469 75.351562 C 51.664062 76.660156 55.347656 79.253906 51.628906 81.269531 C 38.464844 80.894531 23.449219 82.0625 13.304688 91.4375 C 14.675781 92.410156 19.097656 89.210938 20.734375 91.621094 C 17.488281 93.429688 13.21875 92.332031 10.199219 94.425781 C 9.316406 97.234375 7.769531 99.925781 7.863281 102.960938 C 12.214844 104.191406 16.710938 104.332031 21.207031 103.742188 C 21.800781 103.648438 22.386719 103.785156 22.960938 103.929688 C 24.855469 103.375 26.828125 103.167969 28.785156 102.976562 C 29.15625 101.386719 31.308594 100.34375 31.699219 102.503906 C 33.078125 102.371094 34.453125 102.246094 35.832031 102.125 C 35.714844 100.375 37.472656 99.699219 38.144531 101.480469 C 40.386719 100.78125 42.566406 99.890625 44.84375 99.277344 C 44.78125 96.550781 47.074219 93.824219 47.421875 97.71875 C 47.988281 97.875 48.558594 98.03125 49.128906 98.1875 C 50.140625 96.917969 51.167969 95.621094 52.523438 94.703125 C 54.664062 98.261719 49.832031 101.792969 47.785156 104.320312 C 48 104.441406 48.429688 104.683594 48.644531 104.796875 C 52.332031 103.847656 53.410156 97.734375 56.484375 97.640625 C 56.238281 103.109375 50.066406 106.875 47.867188 111.878906 C 44.550781 121.667969 38.3125 131.027344 41.953125 141.875 C 50.488281 136.101562 56.414062 127.863281 61.78125 119.242188 C 61.886719 119.097656 62.089844 118.8125 62.1875 118.671875 C 62.902344 117.652344 63.453125 116.523438 63.890625 115.355469 C 63.902344 114.171875 64.019531 113.003906 64.671875 112.003906 C 65.488281 110.457031 65.839844 108.699219 66.875 107.269531 C 67.773438 104.570312 71.082031 108.792969 72.578125 109.925781 L 72.777344 110.152344 C 75.269531 112.351562 77.851562 114.546875 79.742188 117.308594 C 80.761719 115.457031 82.210938 117.835938 82.875 118.785156 C 83.339844 119.066406 83.8125 119.335938 84.285156 119.621094 C 84.984375 118.480469 85.863281 118.859375 86.625 119.710938 C 87.550781 119.082031 88.457031 118.421875 89.316406 117.714844 C 88.691406 115.976562 88.84375 113.640625 90.703125 115.703125 C 91.058594 114.449219 91.503906 113.226562 91.929688 112.003906 C 91.398438 109.054688 89.164062 106.980469 87.042969 105.070312 C 84.0625 101.832031 89.914062 99.445312 92.558594 100.796875 C 98.359375 101.40625 97.445312 94.933594 95.128906 91.910156 C 90.796875 90.476562 86.203125 89.195312 81.734375 89.101562 C 80.144531 85.277344 86.125 85.679688 88.378906 84.25 C 84.613281 79.890625 82.265625 71.703125 87.347656 67.445312 C 89.222656 66.136719 88.472656 63.652344 88.972656 61.722656 C 91.546875 60.816406 88.128906 66.742188 91.015625 64.109375 C 94.117188 63.71875 92.851562 58.28125 95.074219 58.804688 C 95.492188 67.070312 99.144531 52.691406 100.289062 59.050781 C 104.066406 59.464844 104.375 53.863281 103.449219 51.398438 C 99.671875 48.640625 94.492188 49.242188 91.128906 52.46875 C 83.664062 56.082031 77.699219 62.246094 73.726562 69.488281 C 73.058594 71.121094 71.113281 71.261719 69.613281 71.503906 C 68.851562 69.007812 69.78125 66.378906 69.914062 63.832031 C 62.9375 64.59375 67.789062 56.460938 68.085938 53.089844 C 68.109375 52.8125 68.167969 52.257812 68.191406 51.976562 C 68.710938 44.960938 68.796875 37.929688 67.855469 30.945312 C 67.257812 28.769531 66.4375 26.664062 65.457031 24.632812 C 61.144531 23.070312 58.507812 17.359375 53.875 17.214844 Z M 143.195312 32.351562 C 142.210938 33.0625 141.210938 33.78125 140.046875 34.1875 C 140.128906 41.175781 142.121094 35.164062 143.195312 32.351562 Z M 116.003906 47.121094 C 116.132812 49.617188 118.125 51.542969 118.335938 54.03125 C 122.457031 55.128906 117.335938 49.230469 116.003906 47.121094 Z M 45.847656 53.355469 C 48.984375 56.269531 50.855469 60.320312 53.824219 63.28125 C 53.066406 60.675781 51.710938 58.296875 50.730469 55.777344 C 48.597656 56.164062 47.960938 53.394531 45.847656 53.355469 Z M 138.867188 62.675781 C 148.355469 62.476562 154.894531 74.976562 148.785156 82.453125 C 141.414062 91.894531 127.714844 79.257812 130.179688 70.027344 C 131.222656 66.980469 132.476562 63.050781 136.402344 63.011719 C 137.242188 62.804688 138.066406 62.695312 138.867188 62.675781 Z M 64.390625 73.148438 C 75.714844 72.984375 79.976562 92.511719 68.761719 96.570312 C 55.414062 99.929688 50.808594 78.183594 62.039062 73.449219 C 62.851562 73.253906 63.636719 73.15625 64.390625 73.148438 Z M 43.015625 76.824219 C 42.679688 77.328125 42.371094 77.859375 42.078125 78.390625 C 44.566406 78.398438 47.054688 78.40625 49.542969 78.519531 C 47.773438 77.042969 45.113281 77.445312 43.015625 76.824219 Z M 97.28125 183.5625 C 95.570312 183.53125 94.273438 184.5 94.1875 187.40625 C 94.867188 198.015625 104.6875 205.90625 114.308594 208.914062 C 117 213.671875 117.808594 206.097656 120.707031 205.382812 C 120.53125 201.585938 115.203125 206.742188 115.011719 203.09375 C 114.746094 202.484375 114.492188 201.875 114.214844 201.269531 C 113.46875 200.960938 113.105469 200.296875 112.828125 199.582031 C 112.09375 198.628906 111.347656 197.683594 110.589844 196.746094 C 106.800781 198.269531 105.246094 195.363281 109.089844 194.207031 C 108.371094 193.203125 107.722656 192.152344 107.125 191.082031 C 106.0625 191.046875 104.933594 192.511719 104.015625 191.683594 C 102.035156 189.40625 108.960938 188.601562 105.007812 187.261719 C 103.179688 185.8125 99.78125 183.613281 97.28125 183.5625 Z M 130.492188 184.226562 C 124.980469 185.753906 122.378906 191 120.234375 195.722656 C 120.65625 196.570312 121.429688 197.125 122.386719 196.695312 C 124.042969 191.9375 125.738281 186.75 130.492188 184.226562 Z M 135.269531 186.246094 C 132.972656 186.1875 130.621094 186.816406 128.773438 188.167969 C 125.535156 193.082031 125.664062 198.996094 125.261719 204.652344 C 126.671875 203.871094 128.023438 203 129.375 202.128906 C 129.523438 201.921875 129.828125 201.515625 129.976562 201.316406 C 130.601562 200.394531 131.359375 199.574219 132.160156 198.800781 C 132.300781 197.785156 132.921875 197.046875 133.90625 196.742188 C 135.671875 195.964844 137.179688 194.753906 138.410156 193.28125 C 138.429688 193.117188 138.476562 192.789062 138.496094 192.625 C 138.65625 192.464844 138.972656 192.15625 139.132812 192 C 140.085938 190.949219 140.890625 189.765625 141.4375 188.460938 C 139.8125 187.050781 137.570312 186.300781 135.269531 186.246094 Z M 144.335938 198.09375 C 140.570312 200.144531 141.527344 202.558594 144.972656 200.339844 C 144.773438 199.582031 144.558594 198.835938 144.335938 198.09375 Z M 151.507812 201.730469 C 146.605469 201.6875 141.496094 203.882812 137.484375 206.464844 C 134.117188 207.066406 128.292969 209.378906 130.929688 213.679688 C 134.226562 213.730469 137.523438 213.792969 140.828125 213.921875 C 141.265625 213.074219 141.679688 212.203125 142.246094 211.429688 C 142.808594 210.402344 144.152344 210.871094 145.152344 210.675781 C 145.222656 208.773438 147.152344 208.59375 148.636719 208.46875 C 149.238281 208.367188 149.824219 208.207031 150.402344 208.027344 C 152.777344 207.191406 155.273438 206.714844 157.585938 205.710938 C 155.953125 204.515625 157.792969 204.367188 158.871094 203.902344 C 156.597656 202.386719 154.078125 201.75 151.507812 201.730469 Z M 100.152344 209.558594 C 95.382812 209.59375 90.609375 210.378906 86.125 211.96875 C 81.765625 212.710938 80.335938 218.84375 84.570312 220.355469 C 89.613281 220.332031 94.65625 220.390625 99.703125 220.382812 C 100.929688 216.246094 107.773438 220.128906 110.996094 217.6875 C 111.539062 217.257812 112.082031 216.832031 112.640625 216.417969 C 111.542969 216.179688 109.214844 216.792969 109.292969 215.167969 C 111.464844 213.359375 117.203125 216.914062 115.96875 212.257812 C 110.972656 210.449219 105.5625 209.523438 100.152344 209.558594 Z M 132.835938 216.078125 C 130.746094 215.929688 129.679688 219.898438 130.128906 222.03125 C 132.632812 228.382812 134.695312 236.550781 142.160156 238.632812 C 143.265625 237.128906 147.894531 238.988281 146.011719 236.492188 C 143.613281 236.691406 134.726562 236.707031 140.691406 234.832031 C 142.070312 228.476562 136.550781 223.171875 134.816406 217.300781 C 134.082031 216.484375 133.417969 216.121094 132.835938 216.078125 Z M 118.9375 222.128906 C 112.328125 224.449219 106.535156 229.144531 103.039062 235.390625 C 100.589844 239.15625 103.726562 245.273438 108.609375 244.398438 C 108.570312 244.117188 108.484375 243.554688 108.441406 243.273438 C 108.398438 242.726562 108.109375 242.109375 108.476562 241.617188 C 109.210938 240.3125 110.28125 239.230469 111.179688 238.050781 C 111.339844 236.496094 113.304688 236.90625 114.246094 236.046875 C 115.28125 234.863281 116.390625 233.71875 117.8125 233 C 115.71875 231.308594 118.746094 231.195312 119.964844 230.410156 C 120.964844 228.402344 121.644531 226.246094 122.125 224.058594 C 121.039062 223.449219 120.011719 222.753906 118.9375 222.128906 Z M 129.570312 229.527344 C 129.148438 229.515625 128.664062 230.207031 128.191406 231.949219 C 129.078125 232.261719 129.949219 232.621094 130.792969 233.03125 C 130.675781 231.070312 130.1875 229.546875 129.570312 229.527344 Z M 132.320312 234.636719 C 133.015625 236.3125 134.558594 237.410156 136.105469 238.257812 C 134.941406 236.953125 133.832031 235.5625 132.320312 234.636719 Z M 132.320312 234.636719 "/>
<path style=" stroke:none;fill-rule:nonzero;fill:rgb(0.784314%,0.392157%,0.784314%);fill-opacity:1;" d="M 114.949219 1.234375 C 105.726562 1.332031 99.515625 12.792969 104.234375 20.949219 C 106.636719 30.332031 111.347656 38.699219 116.003906 47.121094 C 117.335938 49.230469 122.457031 55.128906 118.335938 54.03125 C 113.9375 53.078125 110.597656 56.5 106.378906 56.613281 C 106.582031 53.570312 109.75 50.242188 105.699219 48.277344 C 93.410156 43.21875 82.863281 55.734375 74.441406 62.359375 C 75.289062 46.0625 76.429688 21.117188 57.804688 12.65625 C 48.753906 12.515625 42.238281 23.335938 45.730469 31.679688 C 45.574219 40.066406 50.085938 47.542969 50.730469 55.777344 C 51.710938 58.296875 53.066406 60.675781 53.824219 63.28125 C 50.855469 60.320312 48.984375 56.269531 45.847656 53.355469 C 38.335938 46.816406 31.175781 38.15625 20.503906 37.566406 C 16.851562 36.792969 14.863281 40.652344 11.472656 41.066406 C 9.707031 43.847656 11.480469 47.390625 10.679688 50.457031 C 16.191406 63.933594 29.867188 72.277344 43.015625 76.824219 C 45.113281 77.445312 47.773438 77.042969 49.542969 78.519531 C 47.054688 78.40625 44.566406 78.398438 42.078125 78.390625 C 28.328125 79.855469 13.59375 83.195312 4.019531 93.941406 C 2.109375 98.992188 -0.550781 106.273438 4.503906 110.304688 C 10.816406 114.847656 19.582031 116.894531 26.679688 112.980469 C 33.792969 110.203125 41.539062 108.859375 47.785156 104.320312 C 49.832031 101.792969 54.664062 98.261719 52.523438 94.703125 C 51.167969 95.621094 50.140625 96.917969 49.128906 98.191406 C 48.078125 99.820312 46.695312 101.726562 47.421875 97.71875 C 47.074219 93.824219 44.78125 96.550781 44.84375 99.277344 C 44.398438 103.347656 40.691406 106.246094 36.789062 106.792969 C 37.226562 105.019531 37.742188 103.261719 38.144531 101.480469 C 37.472656 99.699219 35.714844 100.375 35.832031 102.128906 C 36.117188 106.238281 32.1875 110.148438 28.015625 109.171875 C 29.21875 106.933594 30.609375 104.796875 31.699219 102.503906 C 31.308594 100.34375 29.15625 101.386719 28.785156 102.976562 C 27.855469 106.972656 25.3125 112.195312 20.351562 109.683594 C 20.894531 107.914062 22.964844 106.203125 22.960938 103.929688 C 22.386719 103.785156 21.800781 103.648438 21.207031 103.742188 C 20.757812 106.945312 17.742188 110.75 14.070312 108.703125 C 10.261719 108.714844 17.625 104.792969 13.472656 105.382812 C 11.585938 108.5625 6.253906 107.210938 7.863281 102.960938 C 7.769531 99.925781 9.316406 97.238281 10.199219 94.425781 C 13.21875 92.332031 17.488281 93.433594 20.734375 91.621094 C 19.097656 89.210938 14.675781 92.410156 13.304688 91.4375 C 23.449219 82.0625 38.464844 80.894531 51.628906 81.269531 C 55.347656 79.253906 51.664062 76.660156 49.480469 75.351562 C 47.585938 74.757812 45.632812 74.304688 43.839844 73.425781 C 44.867188 72.664062 45.914062 71.820312 46.082031 70.472656 C 45.511719 70.191406 44.914062 69.96875 44.316406 69.742188 C 42.878906 73.011719 38.605469 73.527344 36.871094 70.371094 C 38.34375 69.511719 39.125 66.957031 36.625 67.84375 C 35.765625 71.671875 31.089844 68.386719 30.742188 65.738281 C 23.582031 64.085938 13.214844 55.03125 16.664062 46.214844 C 17.121094 44.054688 16.628906 40.140625 19.816406 40.191406 C 27.648438 41.09375 34.519531 45.914062 39.425781 51.890625 C 45.398438 57.171875 51.414062 62.800781 54.8125 70.144531 C 56.230469 69.996094 57.15625 68.53125 58.292969 67.757812 C 52.796875 52.269531 46.109375 33.539062 52.921875 17.261719 C 57.589844 14.507812 63.890625 19.972656 65.457031 24.632812 C 66.4375 26.664062 67.257812 28.769531 67.855469 30.945312 C 70.160156 37.28125 74.402344 47.46875 68.191406 51.976562 C 68.167969 52.257812 68.109375 52.8125 68.085938 53.09375 C 69.308594 53.746094 70.582031 53.171875 71.800781 52.84375 C 71.308594 54.699219 70.425781 56.503906 70.679688 58.476562 C 70.863281 60.9375 66.914062 60.339844 66.546875 62.328125 C 67.207031 64.085938 69.847656 61.929688 69.914062 63.832031 C 69.78125 66.378906 68.851562 69.007812 69.613281 71.507812 C 71.113281 71.261719 73.058594 71.121094 73.726562 69.488281 C 77.699219 62.25 83.664062 56.082031 91.128906 52.46875 C 94.492188 49.242188 99.671875 48.640625 103.449219 51.398438 C 104.375 53.863281 104.066406 59.464844 100.289062 59.050781 C 99.144531 52.691406 95.492188 67.074219 95.074219 58.804688 C 92.851562 58.28125 94.117188 63.71875 91.015625 64.109375 C 88.128906 66.742188 91.546875 60.816406 88.972656 61.722656 C 88.472656 63.652344 89.222656 66.136719 87.347656 67.445312 C 82.265625 71.703125 84.613281 79.890625 88.378906 84.25 C 86.125 85.679688 80.144531 85.277344 81.734375 89.101562 C 86.203125 89.199219 90.796875 90.476562 95.128906 91.910156 C 98.78125 92.835938 100.585938 96.910156 101.4375 100.234375 C 99.925781 105.476562 93.105469 105.125 89.148438 103.59375 C 88.109375 102.160156 86.917969 103.871094 87.042969 105.070312 C 89.164062 106.980469 91.398438 109.054688 91.929688 112.003906 C 96 114.742188 93.289062 121.304688 93.746094 125.335938 C 91.667969 122.78125 92.027344 118.722656 90.703125 115.703125 C 88.84375 113.640625 88.691406 115.976562 89.316406 117.714844 C 89.839844 120.820312 91.863281 124.101562 91.644531 127.074219 C 86.988281 131.082031 88.40625 122.457031 86.625 119.710938 C 85.863281 118.859375 84.984375 118.480469 84.285156 119.625 C 84.816406 122.265625 87.207031 125.296875 86.125 127.816406 C 80.976562 128.023438 82.210938 122.246094 82.875 118.785156 C 82.210938 117.835938 80.761719 115.457031 79.742188 117.308594 C 80.738281 119.695312 80.65625 122.3125 80.355469 124.835938 C 77.972656 119.945312 73.484375 115.523438 72.777344 110.152344 C 72.722656 110.097656 72.621094 109.980469 72.578125 109.925781 C 71.082031 108.792969 67.773438 104.570312 66.875 107.269531 C 66.980469 110.730469 67.054688 114.199219 66.949219 117.664062 C 64.542969 118.339844 66.9375 113.367188 64.671875 112.003906 C 64.019531 113.003906 63.902344 114.171875 63.890625 115.359375 C 65.792969 118.34375 65.191406 122.25 64.699219 125.585938 C 61.570312 125.882812 65.488281 119.453125 62.1875 118.671875 C 62.089844 118.8125 61.886719 119.101562 61.78125 119.242188 C 61.539062 124.773438 64.109375 129.933594 60.691406 134.960938 C 59.28125 132.128906 62.441406 126.300781 58.578125 125.570312 C 57.269531 132 60.203125 140.03125 54.847656 145.132812 C 55.535156 141.78125 57.375 137.054688 54.988281 134.453125 C 52.664062 138.015625 55.097656 151.898438 46.492188 149.191406 C 47.167969 145.121094 51.292969 141.847656 50.386719 137.425781 C 47.324219 139.679688 46.511719 144.210938 45.375 147.75 C 43.023438 147.792969 43.695312 143.222656 41.953125 141.878906 C 38.3125 131.027344 44.550781 121.667969 47.867188 111.878906 C 50.066406 106.875 56.238281 103.113281 56.484375 97.640625 C 53.410156 97.734375 52.332031 103.847656 48.644531 104.796875 C 42.449219 113.652344 38.859375 124.167969 37.3125 134.820312 C 38.9375 140.996094 39.617188 147.507812 42.070312 153.484375 C 43.75 156.351562 47.109375 153.875 49.597656 153.820312 C 61.203125 147.554688 67.273438 135.25 69.0625 122.546875 C 70.03125 119.632812 69.613281 109.664062 71.726562 117.292969 C 75.46875 123.433594 79.804688 130.1875 87.1875 132.152344 C 92.871094 132.234375 96.78125 127.398438 98.25 122.367188 C 104.628906 121.820312 104.847656 129.789062 109.902344 132.179688 C 127.453125 144.464844 142.691406 160.101562 154.96875 177.539062 C 156.269531 179.441406 157.949219 181.109375 158.894531 183.238281 C 156.386719 182.484375 155.609375 179.828125 154.085938 178.011719 C 141.15625 167.367188 125.804688 158 108.605469 156.324219 C 107.527344 159.359375 101.339844 160.429688 103.792969 165.253906 C 110.589844 168.523438 117.769531 171.078125 124.238281 175.039062 C 135.511719 182.535156 150.1875 182.953125 161.066406 190.761719 C 164.28125 192.792969 158.925781 185.105469 163.4375 187.296875 C 176.359375 205.039062 186.625 224.742188 193.816406 245.4375 C 194.640625 249.78125 189.820312 247.011719 188.152344 245.703125 C 183.386719 250.535156 180.894531 238 176.398438 238.230469 C 179.742188 240.414062 180.089844 244.527344 182.621094 247.375 C 184.191406 248.960938 185.523438 250.75 186.773438 252.601562 C 188.484375 253.472656 189.824219 255.175781 191.671875 255.679688 C 194.851562 254.34375 186.355469 251.902344 189.988281 250.914062 C 195.0625 248.886719 197.882812 259.273438 201.835938 254.914062 C 206.503906 252.34375 197.617188 246.5 201.664062 244.40625 C 205.378906 247.25 208.941406 251.777344 213.863281 252.941406 C 217.496094 251.375 211.875 247.621094 213.609375 245.730469 C 220.796875 247.617188 224.378906 255.105469 230.367188 258.738281 C 234.789062 259.503906 231.992188 257.09375 232.023438 254.9375 C 233.726562 254.917969 238.078125 258.300781 236.738281 254.429688 C 231.8125 252.695312 228.746094 248.109375 224.894531 244.945312 C 219.691406 246.460938 232.578125 251.3125 226.507812 252.960938 C 222.738281 244.9375 208.914062 243.664062 212.71875 232.621094 C 211.21875 205.265625 205.746094 178.0625 197.320312 151.9375 C 190.828125 137.894531 184.445312 123.203125 175.070312 110.691406 C 174.855469 107.617188 177.996094 105.628906 177.609375 102.476562 C 177.234375 94.441406 171.164062 88.554688 166.335938 82.925781 C 172.921875 78.511719 179.765625 72.921875 183.789062 65.761719 C 185.671875 58.992188 187.113281 49.027344 180.15625 44.644531 C 173.171875 42.3125 167.742188 47.984375 161.527344 49.707031 C 159 47.804688 163.921875 44.320312 163.496094 41.472656 C 162.253906 36.769531 160.636719 32.054688 158.085938 27.890625 C 153.9375 21.984375 146.359375 28.46875 143.195312 32.351562 C 142.121094 35.164062 140.128906 41.175781 140.046875 34.1875 C 138.535156 20.605469 131.253906 7.339844 118.464844 1.742188 C 117.257812 1.382812 116.078125 1.222656 114.949219 1.234375 Z M 117.601562 5.886719 C 123.363281 6.125 126.5625 13.757812 128.773438 18.675781 C 130.914062 21.128906 126.765625 21.855469 125.097656 22.578125 C 124.683594 23.429688 125.300781 23.867188 125.972656 24.269531 C 129.609375 17.492188 135.847656 29.132812 128.671875 28.855469 C 127.4375 29.890625 128.277344 30.097656 129.503906 30.183594 C 133.058594 27.882812 134.960938 33.398438 133.730469 35.9375 C 136.417969 37.648438 135.859375 42.8125 136.503906 46.273438 C 136.625 47.652344 136.59375 51.492188 139.070312 49.691406 C 141.960938 43.386719 142.5 34.183594 150.1875 31.546875 C 151.457031 30.5 154.863281 28.941406 155.3125 30.914062 C 158.882812 33.394531 160.574219 42.121094 154.425781 41.746094 C 159.933594 42.378906 157.34375 49.945312 152.488281 48.019531 L 152.246094 48.257812 C 158.476562 49.136719 155.160156 55.121094 150.894531 55.042969 C 152.171875 56.03125 153.878906 56.324219 155.113281 57.414062 C 159.980469 50.511719 172.917969 46.257812 180.371094 53.257812 C 183.410156 55.109375 182.402344 57.890625 178.609375 56.277344 C 177.886719 56.511719 176.90625 56.914062 177.816406 57.6875 C 183.417969 55.058594 182.820312 64.699219 177.539062 62.785156 C 171.984375 63.167969 177.789062 63.847656 179.851562 63.375 C 179.382812 69.070312 173.042969 70.269531 168.40625 68.890625 C 166.914062 69.03125 164.242188 69.046875 166.492188 70.707031 C 168.925781 70.636719 171.378906 70.738281 173.789062 70.289062 C 174.085938 72.390625 171.621094 72.625 170.210938 73.285156 C 165.824219 74.527344 162.386719 78.507812 157.460938 77.667969 C 154.863281 77.058594 152.710938 80.175781 156.078125 80.878906 C 159.644531 80.503906 157.109375 86.425781 161.375 84.683594 C 165.613281 85.832031 161.0625 88.34375 158.855469 88.589844 C 159.625 91.394531 162.984375 88.765625 164.914062 88.589844 C 166.453125 89.820312 167.640625 91.46875 169.292969 92.589844 C 168.285156 94.238281 165.613281 94.855469 163.738281 94.238281 C 165.421875 95.039062 164.53125 95.460938 163.703125 96.496094 C 166.246094 98.253906 169.855469 93.101562 171.183594 96.5 C 173.628906 101.519531 169.507812 99.625 166.351562 100.867188 C 167.058594 103.394531 174.539062 99.28125 172.527344 103.902344 C 171.753906 108.113281 166.472656 109.617188 163.363281 107.691406 C 155.441406 106.535156 150.921875 97.988281 147.796875 92.605469 C 145.757812 93.515625 148.40625 96.75 147.882812 98.558594 C 147.785156 102.109375 148.730469 109.296875 142.824219 107.757812 C 142.679688 109.78125 144.78125 109.3125 146.078125 109.558594 C 145.347656 114.1875 141.28125 116.042969 137.128906 115.164062 C 138.066406 116.539062 142.753906 116.242188 139.621094 117.871094 C 135.941406 118.007812 131.140625 120.382812 128.023438 117.570312 C 126.5625 114.433594 124.699219 110.601562 125.964844 107.289062 C 124.84375 102.527344 128.6875 98.039062 127.570312 93.5 C 128.589844 90.867188 132.226562 89.394531 132.824219 86.96875 C 128.5625 85.925781 127.0625 91.246094 123.953125 91.992188 C 123.160156 94.527344 119.75 93.394531 117.832031 93.457031 L 117.703125 93.765625 C 123.949219 95.644531 115.039062 99.242188 113.921875 95.664062 C 112.425781 94.363281 109.78125 94.511719 111.300781 96.921875 C 112.882812 97.066406 115.851562 97.238281 115.636719 99.40625 C 112.953125 97.886719 109.898438 99.707031 107.210938 98.539062 C 106.550781 98.488281 105.917969 98.148438 105.527344 97.609375 C 107.949219 89.261719 115.4375 84.648438 122.375 80.527344 C 121.320312 76.976562 116.53125 81.667969 113.722656 81.191406 C 112.3125 82.769531 107.164062 83.011719 105.164062 81.140625 C 104.890625 81.125 104.34375 81.105469 104.074219 81.09375 C 101.855469 85.160156 93.628906 82.152344 92.535156 77.953125 C 91.296875 75.570312 89.097656 69.390625 93.234375 67.632812 C 101.410156 57.125 116.667969 58.121094 128.5 58.824219 C 132.40625 57.292969 126.695312 55.53125 126.601562 53.144531 C 117.019531 45.621094 112.820312 33.667969 109.703125 22.351562 C 108.460938 17.109375 107.742188 8.765625 114.128906 6.574219 C 115.382812 6.050781 116.539062 5.839844 117.601562 5.886719 Z M 132.277344 35.589844 C 130.070312 36.285156 130.445312 37.503906 132.632812 37.628906 C 132.945312 36.859375 133.15625 36.046875 132.277344 35.589844 Z M 138.867188 62.675781 C 138.066406 62.695312 137.242188 62.804688 136.402344 63.011719 C 132.476562 63.050781 131.222656 66.980469 130.179688 70.027344 C 127.714844 79.257812 141.414062 91.894531 148.785156 82.453125 C 154.894531 74.976562 148.355469 62.476562 138.867188 62.675781 Z M 138.277344 65.042969 C 140.640625 65.007812 142.144531 67.042969 143.554688 69.019531 C 143.75 70.609375 140.402344 70.171875 141.074219 72 C 142.664062 72.910156 144.375 69.886719 145.40625 71.976562 C 146.859375 74.292969 143.074219 74.390625 141.6875 75.085938 C 142.519531 77.0625 146.945312 74.460938 146.167969 77.558594 C 144.410156 78.574219 141.128906 77.621094 140.90625 80.324219 C 142.359375 81.652344 147.542969 77.875 145.609375 81.460938 C 137.957031 86.585938 126.457031 69.921875 136.078125 65.605469 C 136.890625 65.226562 137.617188 65.050781 138.277344 65.042969 Z M 64.390625 73.148438 C 63.636719 73.15625 62.851562 73.253906 62.039062 73.449219 C 50.808594 78.183594 55.414062 99.929688 68.761719 96.570312 C 79.976562 92.511719 75.714844 72.984375 64.390625 73.148438 Z M 65.386719 76.699219 C 70.566406 76.527344 73.226562 83.199219 73.25 87.300781 C 68.851562 86.5 65.269531 89.246094 71.703125 89.421875 C 71.554688 93.414062 65.949219 90.28125 63.800781 92.789062 C 56.367188 91.5625 56.617188 78.941406 63.695312 76.988281 C 64.285156 76.8125 64.847656 76.722656 65.386719 76.699219 Z M 122.738281 97.4375 C 124.914062 98.574219 122.167969 104.039062 122.613281 107.066406 C 120.074219 117.871094 133.207031 126.628906 142.640625 122.183594 C 147.894531 118.640625 150.460938 112.265625 151.140625 106.167969 C 156.980469 106.589844 160.601562 114.542969 167.210938 112.246094 C 171.777344 112.261719 168.445312 119.40625 172.652344 119.324219 C 175.160156 122.175781 173.839844 126.28125 176.359375 129.175781 C 189.253906 151.035156 196.839844 175.765625 199.367188 200.894531 C 200.996094 211.261719 204.8125 221.332031 203.164062 231.984375 C 202.734375 234.964844 207.574219 243.273438 203.011719 242.746094 C 194.828125 216.164062 178.664062 193.050781 161.304688 171.664062 C 155.308594 162.886719 146.59375 156.210938 140.726562 147.261719 C 127.851562 132.890625 111.65625 121.5625 98.945312 107.242188 C 98.828125 104.847656 102.585938 104.707031 104.007812 103.636719 C 110.777344 103.835938 117.421875 101.546875 122.738281 97.4375 Z M 93.785156 106.683594 C 95.75 108.445312 99.789062 113.734375 98.546875 116.839844 C 97.601562 113.472656 93.945312 110.511719 93.785156 106.683594 Z M 239.171875 108.332031 C 238.960938 108.328125 238.753906 108.46875 238.582031 108.824219 C 238.277344 114.753906 241.941406 125.394531 236.132812 128 C 242.65625 131.972656 226.988281 133.046875 235.140625 133.835938 C 235.652344 135.476562 232.78125 139.699219 230.21875 138.648438 C 229.359375 138.882812 228.597656 139.214844 229.398438 140.089844 C 233.96875 139.664062 230.625 145.558594 227.714844 145.367188 C 227.347656 153.730469 218.386719 161.210938 215.320312 169.453125 C 213.121094 172.816406 212.59375 177.738281 210.117188 180.285156 C 211.367188 169.289062 218.585938 160.117188 220.5625 149.328125 C 217.421875 150.386719 217.742188 155.652344 215.777344 158.386719 C 212.839844 162.6875 212.453125 168.449219 209.082031 172.347656 C 210.21875 167.109375 210.253906 161.714844 208.835938 156.527344 C 209.808594 149.601562 210.769531 142.441406 213.902344 136.054688 C 220.648438 128.324219 229.214844 122.527344 236.765625 115.652344 C 237.382812 113.492188 237.335938 111.222656 237.582031 109.015625 C 230.808594 116.609375 224.039062 125.796875 214.421875 130.765625 C 207.375 136.53125 203.128906 146.25 205.144531 155.304688 C 203.683594 164.789062 209.644531 173.328125 208.429688 182.914062 C 210.882812 185.820312 207.601562 189.832031 210.15625 192.878906 C 215.511719 192.328125 210.925781 184.128906 214.476562 181.054688 C 221.167969 164.660156 231.738281 150.058594 238.804688 133.789062 C 242.550781 126.894531 242.789062 118.539062 241.082031 110.933594 C 240.847656 110.203125 239.941406 108.339844 239.171875 108.332031 Z M 171.308594 112.425781 C 173.304688 112.394531 174.066406 114.730469 175.070312 116.109375 C 172.753906 117.519531 171.320312 114.179688 170.894531 112.46875 C 171.039062 112.441406 171.175781 112.429688 171.308594 112.425781 Z M 100.363281 112.4375 C 102.183594 112.71875 103.5625 118.574219 102.089844 120.34375 C 99.71875 118.671875 101.4375 114.898438 100.363281 112.4375 Z M 104.171875 116.679688 C 106.035156 116.746094 108.378906 120.230469 106.367188 121.695312 C 103.933594 121.742188 103.980469 118.507812 104.171875 116.679688 Z M 175.59375 117.933594 C 176.667969 118.191406 178.972656 121.726562 176.402344 121.742188 C 174.984375 121.613281 173.933594 118.585938 175.59375 117.933594 Z M 108.742188 120.554688 C 111.636719 120.597656 112.882812 124.601562 112.027344 127.042969 C 109.804688 125.617188 107.882812 123.453125 108.144531 120.597656 C 108.351562 120.566406 108.550781 120.550781 108.742188 120.554688 Z M 178.726562 123.1875 C 180.019531 124.394531 184.222656 128.628906 180.320312 130.054688 C 179.566406 128.175781 175.46875 124.554688 178.726562 123.1875 Z M 149.308594 124.121094 C 146.421875 125.199219 142.691406 126.1875 141.539062 129.351562 C 138.367188 139.890625 143.363281 151.070312 152.3125 156.664062 C 153.84375 154.5 151.363281 151.273438 153.050781 148.699219 C 154.128906 140.832031 158.292969 128.492188 149.308594 124.121094 Z M 114.113281 125.320312 C 115.746094 125.183594 119.980469 129.824219 119.464844 132.636719 C 121.984375 128.890625 124.746094 135.25 125.851562 137.296875 C 127.65625 136.90625 128.777344 138.585938 129.882812 139.75 C 155.085938 166.085938 179.1875 194.40625 192.964844 228.546875 C 194.429688 231.695312 194.34375 236.160156 197.757812 238.210938 C 199.921875 236.277344 200.207031 241.132812 197.667969 238.773438 C 194.300781 242.925781 201.34375 248.910156 199.632812 253.085938 C 195.382812 246.171875 194.738281 237.5 190.613281 230.390625 C 188.816406 226.070312 185.660156 220.984375 183.988281 215.980469 C 185.472656 213.886719 182.820312 213.078125 181.457031 211.808594 C 168.042969 185.957031 148.390625 163.949219 129.214844 142.21875 C 123.230469 140.960938 119.558594 133.066406 114.1875 129.085938 C 113.167969 126.429688 113.371094 125.382812 114.113281 125.320312 Z M 108.125 127.546875 C 109.972656 128.621094 114.019531 131.226562 113.835938 133.042969 C 112.652344 130.863281 107.5625 129.910156 108.125 127.546875 Z M 150.699219 129.261719 C 151.929688 135.933594 150.589844 145.511719 150.085938 153.09375 C 147.902344 149.519531 145.039062 145.308594 144.484375 140.640625 C 146.707031 136.90625 145.8125 131.0625 150.699219 129.261719 Z M 182.753906 130.261719 C 184.679688 130.585938 187.457031 135.578125 184.730469 137.054688 C 189.4375 136.652344 189.125 142.199219 191.097656 145.03125 C 199.347656 164.328125 203.503906 184.8125 206.210938 205.390625 C 206.808594 206.628906 205.179688 209.574219 208.277344 208.433594 C 208.589844 217.15625 208.648438 225.871094 208.429688 234.582031 C 211.949219 234.75 210.230469 238.445312 207.894531 235.640625 C 204.136719 200.113281 197.410156 163.082031 180.300781 131.039062 C 180.433594 130.390625 182.109375 130.945312 182.753906 130.261719 Z M 162.414062 135.230469 C 159.128906 140.046875 164.480469 145.527344 163.511719 150.671875 C 165.953125 166.058594 180.546875 175.304688 193.910156 180.5625 C 191.054688 167.738281 188.082031 153.105469 178.125 143.136719 C 173.480469 139.175781 166.5 140.222656 162.414062 135.230469 Z M 165.988281 140.734375 C 167.242188 144.230469 178.691406 142.832031 174.75 148.0625 C 175.085938 151.363281 178.101562 145.195312 179.214844 148.640625 C 182.695312 151.0625 173.621094 154.710938 179.589844 153.832031 C 182.367188 151.714844 184.984375 157.535156 181.738281 158.585938 C 181.289062 160.816406 183.894531 159.621094 185.007812 159.429688 C 187.632812 163.839844 190.722656 169.855469 189.703125 174.746094 C 185.714844 172.304688 184.210938 164.390625 179.101562 162.761719 C 179.179688 167.523438 184.433594 169.390625 185.46875 173.742188 C 177.613281 171.289062 171.414062 164.222656 167.742188 156.976562 C 165.152344 151.757812 167.160156 146.144531 165.988281 140.734375 Z M 207.019531 153.25 C 208.640625 155.410156 207.890625 161.277344 208.332031 164.828125 C 206.972656 162.148438 206.738281 157.007812 207.019531 153.25 Z M 112.941406 160.972656 C 116.914062 160.886719 121.113281 162.6875 125.25 163.980469 C 132.417969 168.535156 141.328125 171.769531 147.265625 177.269531 C 150.632812 178.800781 153.675781 181.914062 155.84375 184.972656 C 149.519531 182.304688 142.328125 180.894531 136.503906 177.613281 C 126.121094 173.734375 116.335938 166.660156 106.09375 163.671875 C 108.253906 161.75 110.558594 161.019531 112.941406 160.972656 Z M 97.570312 177.6875 C 91.109375 178.378906 85.871094 186.800781 90.84375 192.226562 C 93.472656 197.558594 98.304688 202.011719 101.941406 205.972656 C 94.0625 206.835938 81.976562 204.941406 76.976562 213.792969 C 75.507812 218.75 80.085938 222.535156 83.488281 225.269531 C 90.289062 227.097656 97.503906 226.761719 104.417969 226.128906 C 104.636719 231.199219 96.710938 234.726562 99.234375 240.070312 C 100.511719 245.648438 106.773438 248.527344 112.121094 247.253906 C 119.132812 244.269531 125.152344 239.03125 128.191406 231.949219 C 129.347656 227.664062 130.59375 229.726562 130.792969 233.03125 C 131.015625 233.785156 131.738281 234.191406 132.320312 234.636719 C 133.832031 235.5625 134.941406 236.953125 136.105469 238.257812 C 138.882812 241.125 142.972656 241.722656 146.683594 242.492188 C 147.320312 246.816406 153.710938 247.890625 152.554688 252.703125 C 150.023438 254.050781 153.222656 254.851562 154.476562 255.386719 C 155.023438 257.871094 150.523438 256.363281 150.894531 259.140625 C 145.714844 260.640625 136.09375 252.285156 134.644531 261.769531 C 130.566406 261.492188 127.328125 258.21875 123.292969 257.566406 C 118.796875 255.800781 116.925781 260.167969 112.445312 260.484375 C 114.175781 263.75 118.824219 261.222656 121.746094 261.917969 C 126.609375 258.734375 131.144531 266.5 135.894531 263.367188 C 137.792969 262.617188 135.539062 259.929688 137.640625 259.269531 C 143.371094 258.480469 147.464844 263.585938 152.675781 264.714844 C 155.878906 264.652344 154.382812 261.484375 154.136719 259.683594 C 158.945312 259.453125 163.132812 262.144531 167.542969 263.359375 C 172.234375 263.046875 169.238281 258.257812 168.613281 255.648438 C 171.121094 253.941406 175.25 260.238281 177.644531 257.496094 C 175.234375 255.074219 171.386719 253.25 168.019531 252.191406 C 161.398438 251.65625 171.554688 262.097656 165.050781 260.035156 C 162.308594 251.835938 156.980469 244.894531 151.089844 238.417969 C 150.875 235.765625 153.292969 233.847656 153.449219 231.308594 C 152.183594 225.710938 147.179688 222.496094 143.402344 218.683594 C 137.4375 214.976562 148.859375 217.414062 151.324219 216.410156 C 156.5625 215.214844 162.117188 213.859375 164.410156 208.390625 C 163.472656 198.457031 152.121094 199.1875 144.972656 200.339844 C 141.527344 202.558594 140.570312 200.144531 144.335938 198.09375 C 151.773438 190.253906 138.652344 178.804688 130.492188 184.226562 C 125.738281 186.75 124.042969 191.9375 122.386719 196.695312 C 121.429688 197.125 120.65625 196.570312 120.234375 195.722656 C 113.765625 188.59375 107.65625 179.570312 97.570312 177.6875 Z M 97.28125 183.566406 C 99.78125 183.613281 103.179688 185.8125 105.007812 187.261719 C 108.960938 188.601562 102.035156 189.40625 104.015625 191.683594 C 104.933594 192.511719 106.0625 191.046875 107.125 191.082031 C 109.058594 188.558594 115.378906 195.03125 109.089844 194.207031 C 105.246094 195.363281 106.800781 198.269531 110.589844 196.746094 C 112.433594 194.066406 115.636719 196.046875 116.875 198.066406 C 115.53125 198.578125 114.179688 199.089844 112.828125 199.582031 C 113.105469 200.296875 113.46875 200.960938 114.214844 201.269531 C 115.863281 201.21875 117.933594 199.539062 119.148438 201.257812 C 117.808594 201.957031 116.355469 202.40625 115.011719 203.09375 C 115.203125 206.742188 120.53125 201.585938 120.707031 205.382812 C 117.808594 206.097656 117 213.671875 114.308594 208.914062 C 104.6875 205.90625 94.867188 198.015625 94.1875 187.40625 C 94.273438 184.5 95.570312 183.53125 97.28125 183.566406 Z M 135.269531 186.246094 C 137.570312 186.300781 139.8125 187.050781 141.4375 188.460938 C 144.980469 190.359375 142.789062 193.371094 139.132812 192 C 138.972656 192.15625 138.65625 192.464844 138.496094 192.625 C 138.476562 192.789062 138.429688 193.117188 138.410156 193.28125 C 147.648438 193.40625 138.867188 198.03125 133.90625 196.742188 C 132.921875 197.046875 132.300781 197.785156 132.160156 198.800781 C 134.785156 198.730469 137.375 198.25 139.984375 197.972656 C 138.660156 201.574219 132.957031 200.117188 129.976562 201.316406 C 129.828125 201.515625 129.523438 201.921875 129.375 202.128906 C 130.960938 202.953125 132.789062 202.480469 134.429688 202.921875 C 132.859375 204.898438 129.234375 204.148438 127.121094 204.574219 C 125.789062 206.46875 129.152344 205.855469 129.007812 207.289062 C 127.488281 207.320312 125.402344 206.210938 125.261719 204.652344 C 125.664062 198.996094 125.535156 193.082031 128.773438 188.167969 C 130.621094 186.816406 132.972656 186.1875 135.269531 186.246094 Z M 151.507812 201.730469 C 154.078125 201.75 156.597656 202.386719 158.871094 203.902344 C 157.792969 204.367188 155.953125 204.515625 157.585938 205.710938 C 160.570312 205.851562 158.617188 209.632812 156.707031 209.859375 C 154.640625 209.101562 152.269531 209.300781 150.402344 208.027344 C 149.824219 208.207031 149.238281 208.367188 148.636719 208.46875 C 149.570312 211.617188 153.320312 209.921875 155.460938 211.097656 C 152.210938 213 148.492188 211.394531 145.152344 210.675781 C 144.152344 210.871094 142.808594 210.402344 142.246094 211.429688 C 148.058594 212.535156 145.503906 214.21875 140.828125 213.921875 C 137.523438 213.792969 134.226562 213.730469 130.929688 213.679688 C 128.292969 209.378906 134.117188 207.066406 137.484375 206.464844 C 141.496094 203.882812 146.605469 201.6875 151.507812 201.730469 Z M 122.210938 207.40625 C 124.296875 207.347656 129.144531 210.148438 126.183594 212.003906 C 128.234375 214.179688 129.476562 219.378906 125.164062 219.464844 C 118.023438 225.066406 114.53125 206.285156 124.6875 210.832031 C 126.363281 207.683594 117.011719 209.558594 122.210938 207.40625 Z M 161.234375 207.476562 C 162.617188 207.839844 161.398438 210.695312 159.855469 210.902344 C 160.363281 209.777344 160.730469 208.597656 161.234375 207.476562 Z M 100.152344 209.5625 C 105.5625 209.523438 110.972656 210.449219 115.96875 212.257812 C 117.203125 216.914062 111.464844 213.359375 109.292969 215.167969 C 109.214844 216.792969 111.542969 216.179688 112.640625 216.417969 C 114.324219 215.90625 117.144531 216.234375 116.402344 218.574219 C 114.652344 218.191406 112.3125 218.128906 110.996094 217.6875 C 107.773438 220.128906 100.929688 216.246094 99.703125 220.382812 C 104.675781 220.8125 110.625 219.570312 115.207031 220.65625 C 109.246094 223.59375 100.78125 219.308594 95.78125 224.105469 C 92.117188 223.445312 86.851562 223.023438 84.570312 220.355469 C 80.335938 218.84375 81.765625 212.710938 86.125 211.96875 C 90.609375 210.378906 95.382812 209.59375 100.152344 209.5625 Z M 132.835938 216.078125 C 133.417969 216.121094 134.082031 216.484375 134.816406 217.300781 C 137.191406 218.839844 141.003906 219.402344 141.882812 222.46875 C 143.058594 223.359375 146.792969 223.007812 146.359375 225.222656 C 144.789062 225.375 141.582031 224.886719 140.878906 226.445312 C 144.125 228.347656 149.261719 225.253906 150.738281 230.074219 C 147.652344 230.398438 144.546875 229.664062 141.46875 229.980469 C 141.074219 234.28125 153.082031 228.96875 149.683594 234.828125 C 146.976562 235.417969 143.683594 234.574219 140.691406 234.832031 C 134.726562 236.707031 143.613281 236.691406 146.011719 236.492188 C 147.894531 238.988281 143.265625 237.128906 142.160156 238.632812 C 134.695312 236.550781 132.632812 228.382812 130.128906 222.03125 C 129.679688 219.898438 130.746094 215.929688 132.835938 216.078125 Z M 118.9375 222.128906 C 120.011719 222.753906 121.039062 223.449219 122.125 224.058594 C 129.652344 220.765625 126.855469 234.269531 119.964844 230.410156 C 118.746094 231.195312 115.71875 231.308594 117.8125 233 C 119.914062 232.6875 122.359375 231.992188 124.324219 233.007812 C 123.339844 237.34375 117.460938 235.507812 114.246094 236.050781 C 113.304688 236.90625 111.339844 236.496094 111.179688 238.050781 C 114.457031 240.058594 118.414062 236.03125 121.183594 238.25 C 118.84375 242.582031 112.613281 240.308594 108.476562 241.617188 C 108.109375 242.109375 108.398438 242.726562 108.441406 243.273438 C 110.945312 243.433594 113.671875 242.121094 116.089844 243.003906 C 114.207031 245.160156 111.078125 243.882812 108.609375 244.398438 C 103.726562 245.273438 100.589844 239.15625 103.039062 235.390625 C 106.535156 229.144531 112.328125 224.449219 118.9375 222.128906 Z M 149.015625 241.214844 C 151.578125 241.550781 152.738281 244.828125 154.390625 246.519531 C 152.074219 247.199219 150.335938 242.933594 149.015625 241.214844 Z M 207.441406 242.3125 C 209.050781 242.636719 210.421875 246.175781 209.691406 247.898438 C 207.144531 247.414062 207.515625 244.253906 207.441406 242.3125 Z M 231.199219 242.441406 C 230.167969 243.535156 227.515625 241.824219 227.621094 243.828125 C 235.085938 246.960938 241.433594 252.320312 246.910156 258.175781 C 249.992188 261.074219 248.183594 254.652344 248.648438 253.261719 C 250.191406 249.695312 242.125 247.285156 244.097656 252.113281 C 239.199219 250.75 236.058594 244.632812 231.199219 242.441406 Z M 182.042969 248.164062 C 178.175781 249.390625 185.257812 254.164062 186.152344 256.988281 C 191.140625 258.5625 186.613281 254.539062 186.125 252.722656 C 184.488281 251.457031 183.65625 249.46875 182.042969 248.164062 Z M 154.960938 248.789062 C 156.957031 248.664062 157.484375 250.933594 158.367188 252.261719 C 155.980469 253.675781 155.015625 250.671875 154.960938 248.789062 Z M 158.515625 254.5625 C 160.492188 254.585938 161.398438 256.960938 161.839844 258.839844 C 160.292969 257.949219 154.984375 256.953125 156.96875 254.960938 C 157.546875 254.679688 158.058594 254.5625 158.515625 254.5625 Z M 158.515625 254.5625 "/>
<path style=" stroke:none;fill-rule:nonzero;fill:rgb(97.647059%,92.54902%,37.647059%);fill-opacity:1;" d="M 138.277344 65.042969 C 137.617188 65.050781 136.890625 65.226562 136.078125 65.605469 C 126.457031 69.921875 137.957031 86.585938 145.609375 81.460938 C 147.542969 77.875 142.359375 81.652344 140.90625 80.324219 C 141.128906 77.621094 144.410156 78.574219 146.167969 77.558594 C 146.945312 74.460938 142.519531 77.0625 141.6875 75.085938 C 143.074219 74.390625 146.859375 74.292969 145.40625 71.976562 C 144.375 69.886719 142.664062 72.910156 141.074219 71.996094 C 140.402344 70.171875 143.75 70.609375 143.554688 69.019531 C 142.144531 67.042969 140.640625 65.007812 138.277344 65.042969 Z M 65.386719 76.699219 C 64.847656 76.722656 64.285156 76.8125 63.695312 76.988281 C 56.617188 78.941406 56.367188 91.5625 63.800781 92.789062 C 65.949219 90.28125 71.554688 93.414062 71.703125 89.421875 C 65.269531 89.246094 68.851562 86.5 73.25 87.300781 C 73.226562 83.199219 70.566406 76.527344 65.386719 76.699219 Z M 122.210938 207.40625 C 117.011719 209.558594 126.363281 207.683594 124.6875 210.832031 C 114.53125 206.285156 118.023438 225.066406 125.164062 219.464844 C 129.476562 219.378906 128.234375 214.179688 126.183594 212.003906 C 129.144531 210.148438 124.296875 207.347656 122.210938 207.40625 Z M 122.210938 207.40625 "/>
<path style=" stroke:none;fill-rule:nonzero;fill:rgb(36.078431%,61.176471%,38.431373%);fill-opacity:1;" d="M 93.785156 106.683594 C 93.945312 110.511719 97.601562 113.472656 98.546875 116.839844 C 99.789062 113.734375 95.75 108.445312 93.785156 106.683594 Z M 238.582031 108.824219 C 238.328125 108.871094 237.828125 108.964844 237.582031 109.015625 C 237.335938 111.222656 237.382812 113.492188 236.765625 115.652344 C 236.890625 124.023438 231.671875 130.730469 230.21875 138.648438 C 232.78125 139.699219 235.652344 135.476562 235.140625 133.835938 C 226.988281 133.046875 242.65625 131.972656 236.132812 128 C 241.941406 125.394531 238.277344 114.753906 238.582031 108.824219 Z M 171.308594 112.425781 C 171.175781 112.429688 171.039062 112.441406 170.894531 112.46875 C 171.320312 114.179688 172.753906 117.519531 175.070312 116.109375 C 174.066406 114.730469 173.304688 112.394531 171.308594 112.425781 Z M 100.363281 112.4375 C 101.4375 114.898438 99.71875 118.671875 102.089844 120.34375 C 103.5625 118.574219 102.183594 112.71875 100.363281 112.4375 Z M 104.171875 116.679688 C 103.980469 118.507812 103.933594 121.742188 106.367188 121.695312 C 108.378906 120.230469 106.035156 116.746094 104.171875 116.679688 Z M 175.59375 117.933594 C 173.933594 118.585938 174.984375 121.613281 176.402344 121.742188 C 178.972656 121.726562 176.667969 118.191406 175.59375 117.933594 Z M 108.742188 120.554688 C 108.550781 120.550781 108.351562 120.566406 108.144531 120.597656 C 107.882812 123.453125 109.804688 125.617188 112.027344 127.042969 C 112.882812 124.601562 111.636719 120.597656 108.742188 120.554688 Z M 178.726562 123.1875 C 175.46875 124.554688 179.566406 128.175781 180.320312 130.054688 C 184.222656 128.628906 180.019531 124.394531 178.726562 123.1875 Z M 108.125 127.546875 C 107.5625 129.910156 112.652344 130.863281 113.835938 133.042969 C 114.019531 131.226562 109.972656 128.621094 108.125 127.546875 Z M 229.804688 140.070312 C 229.679688 140.070312 229.542969 140.074219 229.398438 140.089844 C 225.269531 150.074219 218.050781 159.226562 215.320312 169.453125 C 218.386719 161.210938 227.347656 153.730469 227.714844 145.367188 C 230.535156 145.554688 233.765625 140.027344 229.804688 140.070312 Z M 207.019531 153.25 C 206.738281 157.007812 206.972656 162.148438 208.332031 164.828125 C 207.890625 161.277344 208.640625 155.410156 207.019531 153.25 Z M 141.855469 176.925781 C 140.050781 176.921875 138.25 177.085938 136.503906 177.613281 C 142.328125 180.894531 149.519531 182.304688 155.84375 184.972656 C 153.675781 181.914062 150.632812 178.800781 147.265625 177.269531 C 145.480469 177.109375 143.664062 176.933594 141.855469 176.925781 Z M 154.96875 177.539062 C 154.746094 177.65625 154.308594 177.890625 154.085938 178.011719 C 155.609375 179.828125 156.386719 182.484375 158.894531 183.234375 C 157.949219 181.109375 156.269531 179.441406 154.96875 177.539062 Z M 192.964844 228.546875 C 191.984375 228.890625 191.125 229.472656 190.613281 230.390625 C 194.738281 237.5 195.382812 246.171875 199.632812 253.085938 C 201.34375 248.910156 194.300781 242.925781 197.667969 238.773438 C 200.207031 241.132812 199.921875 236.277344 197.757812 238.210938 C 194.34375 236.160156 194.429688 231.695312 192.964844 228.546875 Z M 149.015625 241.214844 C 150.335938 242.933594 152.074219 247.199219 154.390625 246.519531 C 152.738281 244.828125 151.578125 241.550781 149.015625 241.214844 Z M 207.441406 242.3125 C 207.515625 244.253906 207.144531 247.414062 209.691406 247.898438 C 210.421875 246.175781 209.050781 242.636719 207.441406 242.3125 Z M 182.621094 247.371094 C 182.480469 247.570312 182.183594 247.96875 182.042969 248.164062 C 183.65625 249.46875 184.488281 251.457031 186.125 252.722656 L 186.773438 252.601562 C 185.523438 250.75 184.191406 248.960938 182.621094 247.371094 Z M 154.960938 248.789062 C 155.015625 250.671875 155.980469 253.675781 158.367188 252.261719 C 157.484375 250.933594 156.957031 248.664062 154.960938 248.789062 Z M 158.515625 254.5625 C 158.058594 254.5625 157.546875 254.679688 156.96875 254.960938 C 154.984375 256.953125 160.292969 257.949219 161.839844 258.839844 C 161.398438 256.960938 160.492188 254.585938 158.515625 254.5625 Z M 158.515625 254.5625 "/>
<path style=" stroke:none;fill-rule:nonzero;fill:rgb(22.745098%,44.705882%,15.294118%);fill-opacity:1;" d="M 236.765625 115.652344 C 229.214844 122.527344 220.648438 128.324219 213.902344 136.054688 C 210.769531 142.441406 209.808594 149.601562 208.835938 156.527344 C 210.253906 161.714844 210.21875 167.109375 209.082031 172.347656 C 212.453125 168.449219 212.839844 162.6875 215.777344 158.386719 C 217.742188 155.652344 217.421875 150.386719 220.5625 149.328125 C 218.585938 160.117188 211.367188 169.289062 210.117188 180.285156 C 212.59375 177.738281 213.121094 172.816406 215.320312 169.453125 C 218.050781 159.226562 225.269531 150.074219 229.398438 140.089844 C 228.597656 139.214844 229.359375 138.882812 230.21875 138.648438 C 231.671875 130.730469 236.890625 124.023438 236.765625 115.652344 Z M 114.113281 125.320312 C 113.371094 125.382812 113.167969 126.429688 114.1875 129.085938 C 119.558594 133.066406 123.230469 140.960938 129.214844 142.21875 C 148.390625 163.949219 168.042969 185.957031 181.457031 211.808594 C 182.820312 213.078125 185.472656 213.886719 183.988281 215.980469 C 185.660156 220.984375 188.816406 226.070312 190.613281 230.390625 C 191.125 229.472656 191.984375 228.890625 192.964844 228.546875 C 179.1875 194.40625 155.085938 166.085938 129.882812 139.75 C 128.777344 138.585938 127.65625 136.90625 125.851562 137.296875 C 124.746094 135.25 121.984375 128.890625 119.464844 132.636719 C 119.980469 129.824219 115.746094 125.183594 114.113281 125.320312 Z M 150.699219 129.261719 C 145.8125 131.0625 146.707031 136.90625 144.484375 140.640625 C 145.039062 145.308594 147.902344 149.519531 150.085938 153.09375 C 150.589844 145.511719 151.929688 135.933594 150.699219 129.261719 Z M 182.753906 130.261719 C 182.109375 130.945312 180.433594 130.390625 180.300781 131.039062 C 197.410156 163.082031 204.136719 200.113281 207.894531 235.640625 C 210.230469 238.445312 211.949219 234.75 208.429688 234.582031 C 208.648438 225.871094 208.589844 217.15625 208.277344 208.433594 C 205.179688 209.574219 206.808594 206.628906 206.210938 205.390625 C 203.503906 184.8125 199.347656 164.328125 191.097656 145.03125 C 189.125 142.199219 189.4375 136.652344 184.730469 137.054688 C 187.457031 135.578125 184.679688 130.585938 182.753906 130.261719 Z M 165.988281 140.734375 C 167.160156 146.144531 165.152344 151.757812 167.742188 156.976562 C 171.414062 164.222656 177.613281 171.289062 185.46875 173.742188 C 184.433594 169.390625 179.179688 167.523438 179.101562 162.761719 C 184.210938 164.390625 185.714844 172.304688 189.703125 174.746094 C 190.722656 169.855469 187.632812 163.839844 185.007812 159.429688 C 183.894531 159.621094 181.289062 160.816406 181.738281 158.585938 C 184.984375 157.535156 182.367188 151.714844 179.589844 153.832031 C 173.621094 154.710938 182.695312 151.0625 179.214844 148.640625 C 178.101562 145.195312 175.085938 151.363281 174.75 148.0625 C 178.691406 142.832031 167.242188 144.230469 165.988281 140.734375 Z M 112.941406 160.972656 C 110.558594 161.019531 108.253906 161.75 106.09375 163.671875 C 116.335938 166.660156 126.121094 173.734375 136.503906 177.613281 C 139.996094 176.5625 143.695312 176.945312 147.265625 177.269531 C 141.328125 171.769531 132.417969 168.535156 125.25 163.980469 C 121.113281 162.6875 116.914062 160.886719 112.941406 160.972656 Z M 112.941406 160.972656 "/>
</g>
</svg>
