<?xml version="1.0" encoding="UTF-8"?>
<svg xmlns="http://www.w3.org/2000/svg" xmlns:xlink="http://www.w3.org/1999/xlink" width="172px" height="220px" viewBox="0 0 172 219" version="1.1">
<g id="surface1">
<path style="fill-rule:nonzero;fill:rgb(97.254902%,97.254902%,97.254902%);fill-opacity:1;stroke-width:22;stroke-linecap:round;stroke-linejoin:bevel;stroke:rgb(0%,0%,0%);stroke-opacity:1;stroke-miterlimit:4;" d="M -1054.344038 -473.647599 L -1217.390684 -406.247485 L -1234.795298 -41.023459 L -1332.601666 280.713124 L -1295.657398 621.997367 L -1300.008552 850.279328 L -1071.748652 874.191999 C -1071.748652 874.191999 -848.731758 954.334692 -736.953053 935.058151 C -632.255107 917.001644 -460.560205 776.29103 -460.560205 776.29103 L -570.014691 854.481668 L -267.379793 848.083266 L -295.648779 371.998796 L -247.813114 152.446858 L -356.673033 -411.127622 L -630.444378 -454.072827 L -684.79326 -204.074257 L -689.117388 -75.807991 C -689.117388 -75.807991 -762.168123 -32.374772 -802.868977 -31.344521 C -840.67807 -30.395606 -906.161581 -62.929852 -910.512735 -67.267751 C -914.863888 -71.605651 -917.377288 -312.765751 -917.377288 -312.765751 Z M -1089.126241 -419.288296 L -1084.775088 -412.781446 L -1046.047117 -390.359928 L -1015.210681 -323.637612 L -995.644002 -158.417865 L -1037.66912 -109.996061 L -1121.746381 -84.510902 L -1162.852621 -210.553994 L -1165.744382 -334.699255 Z M -478.262103 -362.760043 L -413.04885 -297.69155 L -409.076058 -169.886186 L -473.91095 -49.72637 L -578.25756 -149.742066 L -541.313293 -354.084244 Z M -478.262103 -362.760043 " transform="matrix(0.144538,0,0,0.144079,199.396491,78.215304)"/>
<path style=" stroke:none;fill-rule:nonzero;fill:rgb(90.196078%,88.627451%,88.627451%);fill-opacity:1;" d="M 32.941406 81.695312 C 22.535156 98.269531 8.550781 116.589844 18.152344 136.886719 C 18.582031 150.882812 37.652344 176.496094 18.597656 182.335938 C 15.320312 165.242188 19.855469 143.597656 17.226562 124.777344 C 14.972656 102.453125 38.71875 116.945312 36.210938 131.347656 C 40.914062 137.285156 49.582031 161.96875 38.742188 156.320312 C 41.4375 141.589844 32.066406 124.195312 38.667969 111.652344 C 47.132812 123.082031 42.21875 145.535156 53.953125 158.738281 C 59.859375 161.546875 64.707031 180.128906 55.988281 175.1875 C 49.355469 165.558594 64.257812 139.6875 67.066406 160.527344 C 53.039062 164.359375 79.722656 147.25 72.632812 153.367188 C 74.21875 141.082031 92.765625 148.355469 77.605469 151.785156 C 85.054688 140.988281 77.1875 164.175781 69.25 157.136719 C 84.367188 148.113281 57.011719 177.410156 56.125 158.40625 C 66.550781 137.773438 71.269531 182.152344 56.175781 178.25 C 41.242188 169.351562 40.789062 148.453125 35.097656 133.464844 C 28.722656 125.902344 35.007812 100.339844 44.21875 114.140625 C 46.132812 128.371094 51.515625 147.789062 43.941406 159.71875 C 26.785156 159.9375 34.03125 136.023438 23.078125 126.757812 C 16.0625 119.335938 28.707031 106.054688 26.785156 121.253906 C 25.058594 136.847656 26.765625 152.628906 26.824219 168.332031 C 30.355469 178.179688 12.066406 193.089844 17.375 174.519531 C 14.796875 152.980469 -1.535156 130.535156 10.4375 109.230469 C 16.96875 99.5625 20.972656 85.953125 32.941406 81.695312 Z M 32.941406 81.695312 "/>
<path style=" stroke:none;fill-rule:nonzero;fill:rgb(90.196078%,88.627451%,88.627451%);fill-opacity:1;" d="M 24.195312 181.101562 C 31.816406 191.214844 45.195312 192.050781 56.300781 195.390625 C 70.273438 193.316406 83.128906 202.121094 96.828125 198.003906 C 150.933594 189.003906 77.273438 209.054688 98.265625 197.773438 C 104.351562 195.425781 129.714844 185.507812 125.351562 187.613281 C 119.527344 191.082031 131.25 185.183594 123.738281 189.886719 C 119.046875 193.25 106.128906 201.824219 105.085938 202.046875 C 110.625 196.503906 96.960938 206.128906 105.195312 199.964844 C 109.785156 196.394531 118.445312 189.070312 122.15625 190.285156 C 111.582031 189.175781 128.375 172.34375 125.757812 164.964844 C 120.746094 159.574219 124.855469 139.558594 129.644531 152.84375 C 132.804688 169.015625 119.816406 181.203125 110.007812 192.066406 C 105.335938 196.457031 121.109375 187.28125 125.382812 186.375 C 131.4375 183.074219 134.3125 183.515625 129.9375 184.472656 C 139.386719 177.875 140.699219 166.890625 140.285156 156.246094 C 140.335938 149.371094 135.355469 128.445312 148.253906 135.167969 C 148.054688 148.117188 145.699219 163.074219 137.988281 173.421875 C 133.574219 176.84375 127.234375 179.90625 135.355469 175.15625 C 127.039062 182.609375 116.453125 186.71875 108.578125 194.191406 C 97.082031 204.558594 98.234375 189.453125 106.296875 192.34375 C 103.914062 204.359375 89.800781 198.019531 95.660156 196.910156 C 91.046875 202.21875 79.324219 201.949219 89.703125 195.003906 C 91.890625 193.53125 97.738281 190.554688 91.507812 193.410156 C 92.390625 188.378906 100.011719 172.074219 101.859375 181.660156 C 97.230469 191.152344 82.980469 209.746094 76.082031 206.375 C 80.820312 196.546875 78.988281 183.492188 85.675781 175.808594 C 92.335938 178.21875 90.429688 196.4375 81.785156 199.179688 C 87.070312 197.628906 61.53125 207.242188 65.660156 207.828125 C 48.9375 211.878906 73.644531 197.042969 71.464844 202.886719 C 65.710938 209.148438 54.722656 203.929688 67.046875 200.328125 C 76.34375 196.71875 75.523438 203.066406 67.320312 204.945312 C 57.59375 198.425781 88.890625 196.527344 73.15625 201.367188 C 65.519531 195.472656 51.734375 178.585938 61.902344 177.550781 C 49.253906 183.359375 65.414062 170.773438 68.152344 180.429688 C 69.617188 190.140625 91.363281 195.8125 76.554688 203.371094 C 68.757812 208.980469 61.769531 199.375 73.320312 198.925781 C 85.351562 204.777344 51.765625 209.539062 65.5625 200.476562 C 78.933594 195.589844 70.058594 210.296875 61.476562 208.070312 C 64.128906 202.933594 88.148438 195.261719 77.035156 201.25 C 79.472656 198.625 86.632812 194.164062 80.097656 199.046875 C 83.375 192.023438 75.492188 171.105469 88.871094 175.328125 C 89.933594 185.617188 86.972656 200.785156 78.90625 205.675781 C 90.429688 201.667969 92.316406 177.261719 102.785156 180.238281 C 103.984375 187.972656 89.464844 198.71875 88.230469 197.898438 C 91.203125 194.746094 98.585938 194.4375 91.773438 197.71875 C 95.722656 187.964844 109.460938 197.496094 97.078125 196.917969 C 120.949219 198.765625 110.441406 194.132812 106.136719 196.324219 C 105.230469 192.464844 106.75 192.164062 109.640625 191.234375 C 114.09375 187.484375 128.273438 178.332031 130.183594 177.007812 C 134.089844 173.75 141.183594 169.167969 132.96875 174.949219 C 138.394531 163.242188 139.746094 150.789062 141.320312 138.257812 C 151.332031 126.742188 147.617188 153.675781 147.738281 160.742188 C 149.183594 172.65625 137.867188 180.46875 129.753906 187.007812 C 121.636719 191.035156 105.152344 200.320312 100.851562 197.820312 C 108.050781 188.867188 118.035156 181.433594 121.289062 170.023438 C 122.09375 161.847656 120.476562 143.886719 131.402344 145.628906 C 132.285156 156.460938 134.992188 168.324219 128.148438 178.207031 C 129.53125 187.070312 116.632812 199.007812 113.179688 195.621094 C 114.816406 197.328125 92.515625 210.019531 105.28125 200.007812 C 112.9375 196.609375 134.273438 186.546875 130.480469 185.273438 C 129.238281 187.726562 120.703125 192.089844 127.441406 187.863281 C 116.910156 195.53125 103.433594 199.65625 91.253906 203.054688 C 93.050781 197.25 117.359375 195.273438 115.785156 195.347656 C 107.027344 201.824219 95.1875 201.675781 85.195312 205.25 C 72.863281 204.367188 61.058594 201.078125 48.726562 200.996094 C 38.332031 197.449219 25.128906 197.789062 18.3125 187.765625 C 16.4375 183.996094 21.40625 181.847656 24.195312 181.101562 Z M 24.195312 181.101562 "/>
<path style=" stroke:none;fill-rule:nonzero;fill:rgb(90.196078%,88.627451%,88.627451%);fill-opacity:1;" d="M 64.707031 65.9375 C 65.800781 69.234375 69.261719 70.855469 72.5 71.25 C 75.464844 71.683594 78.476562 71.867188 81.378906 72.628906 C 88.144531 73.640625 95.238281 74.363281 101.871094 72.253906 C 103.277344 71.210938 100.253906 73.4375 99.824219 73.726562 C 99.148438 74.257812 95.738281 76.621094 97.882812 74.683594 C 100.292969 72.480469 102.691406 70.105469 105.84375 68.972656 C 110.140625 67.226562 115.503906 67.28125 119.300781 70.148438 C 121.453125 71.648438 120.796875 74.765625 118.714844 75.992188 C 115.484375 78.261719 111.28125 79.476562 107.359375 78.71875 C 103.992188 77.304688 100.40625 79.292969 96.9375 78.878906 C 94.355469 77.617188 98.222656 75.199219 99.464844 74.132812 C 103.90625 71.082031 109.632812 70.566406 114.832031 71.480469 C 117.039062 71.441406 119.585938 70.640625 121.566406 71.808594 C 120.871094 73.671875 118.605469 74.84375 117.109375 76.222656 C 113.621094 78.140625 109.671875 76.347656 106.125 75.585938 C 104.253906 75.042969 102.261719 75.152344 100.398438 75.347656 C 101.460938 73.421875 103.992188 72.292969 105.949219 71.238281 C 104.207031 72.648438 102.40625 74.007812 100.714844 75.507812 C 94.816406 80.128906 86.878906 81.9375 79.542969 80.414062 C 73.035156 79.414062 66.28125 79.304688 60.0625 76.992188 C 57.949219 76.113281 55.847656 73.507812 57.683594 71.351562 C 59.5 68.960938 62.246094 67.550781 64.707031 65.9375 Z M 64.707031 65.9375 "/>
<path style=" stroke:none;fill-rule:nonzero;fill:rgb(81.960784%,76.078431%,76.078431%);fill-opacity:1;" d="M 50.023438 62.976562 C 56.78125 68.648438 63.921875 70.816406 71.09375 75.898438 C 77.832031 80.324219 85.945312 80.320312 93.597656 78.996094 C 100.824219 77.671875 108.101562 77.082031 115.375 76.226562 C 118.808594 76.003906 126.132812 70.246094 127.085938 72.316406 C 123.941406 73.761719 120.011719 78.359375 121.246094 75.117188 C 112.308594 73.230469 109.417969 63.007812 109.257812 55.03125 C 109.589844 48.046875 108.183594 39.414062 114.859375 34.808594 C 117.683594 32.46875 122.269531 32.359375 117.207031 35.691406 C 113.054688 41.234375 107.699219 37.632812 113.59375 33.144531 C 116.71875 29.238281 123.34375 26.210938 120.9375 33.933594 C 119.28125 38.476562 107.976562 44.472656 113.214844 35.179688 C 114.183594 32.75 124.347656 27.3125 118.441406 33.140625 C 115.796875 34.527344 106.398438 41.085938 113.816406 36.398438 C 116.6875 33.492188 121.980469 29.691406 118.992188 36.691406 C 117.433594 45.214844 113.28125 51.398438 117.523438 59.242188 C 119.207031 64.699219 135.984375 68.675781 127.324219 74.25 C 122.289062 78.355469 123.140625 79.460938 117.386719 82.324219 C 110.46875 83.800781 95.789062 83.710938 88.875 85.464844 C 80.425781 86.75 71.269531 87.53125 63.734375 82.660156 C 57.464844 78.988281 51.25 75.226562 44.359375 72.8125 C 32.398438 64.609375 47.074219 65.917969 50.023438 62.976562 Z M 50.023438 62.976562 "/>
<path style="fill:none;stroke-width:20.625;stroke-linecap:round;stroke-linejoin:bevel;stroke:rgb(0%,0%,0%);stroke-opacity:1;stroke-miterlimit:4;" d="M -133.65152 379.189329 L -221.29112 456.636086 L -455.655475 491.305393 L -598.326359 452.569306 L -728.759623 358.830008 L -743.024178 346.604248 " transform="matrix(0.154174,0,0,0.153684,151.503983,12.146462)"/>
<path style="fill:none;stroke-width:20.625;stroke-linecap:round;stroke-linejoin:bevel;stroke:rgb(0%,0%,0%);stroke-opacity:1;stroke-miterlimit:4;" d="M -121.135197 1157.672848 L -223.748779 1230.976572 " transform="matrix(0.154174,0,0,0.153684,151.503983,12.146462)"/>
<path style=" stroke:none;fill-rule:nonzero;fill:rgb(81.960784%,76.078431%,76.078431%);fill-opacity:1;" d="M 56 26.730469 C 55.292969 29.523438 56.371094 32.375 56.195312 35.195312 C 56.1875 36.90625 53.039062 36.402344 54.550781 34.878906 C 55.191406 33.347656 57.382812 32.914062 57.367188 35.039062 C 58.21875 37.238281 59.054688 39.558594 58.847656 41.957031 C 59.476562 43.914062 57.992188 46.0625 56.085938 46.582031 C 56.347656 45.523438 59.019531 44.785156 58.367188 46.824219 C 58.203125 48.429688 58.683594 50.019531 58.652344 51.640625 C 58.699219 53.496094 58.8125 55.414062 58.371094 57.222656 C 57.121094 60.15625 54.195312 61.773438 51.65625 63.457031 C 52.113281 63.105469 54.230469 61.59375 52.800781 62.707031 C 51.714844 63.585938 50.515625 65.074219 49.054688 64.96875 C 49.097656 63.714844 51.371094 62.746094 51.628906 62.558594 C 51.003906 62.972656 49.078125 64.378906 50.699219 63.207031 C 51.226562 62.816406 53.152344 61.453125 51.632812 62.53125 C 51.015625 62.878906 53.019531 61.496094 53.464844 61.164062 C 55.222656 59.917969 51.664062 62.640625 53.054688 61.191406 C 54.292969 60.140625 55.058594 58.636719 56.324219 57.640625 C 56.949219 57.140625 57.714844 56.898438 56.722656 57.714844 C 55.570312 59.285156 54.773438 61.121094 53.285156 62.433594 C 51.933594 63.917969 54.503906 62.917969 54.964844 62.953125 C 54.316406 63.277344 52.476562 65.289062 52.542969 63.609375 C 53.027344 62.226562 54.019531 60.566406 55.660156 60.554688 C 56.980469 61.441406 55.390625 63 56.023438 64.242188 C 56.039062 65.761719 55.246094 68.582031 53.230469 67.972656 C 52.121094 67.195312 52.890625 65.585938 52.863281 64.441406 C 53.027344 63.070312 54.015625 62.011719 55.234375 61.464844 C 56.804688 60.824219 55.277344 63.289062 54.910156 63.851562 C 53.851562 65.378906 51.398438 66.308594 49.816406 65.03125 C 49.527344 63.488281 52.054688 62.863281 52.359375 61.296875 C 53.386719 59.699219 54.4375 58.003906 56.113281 57.011719 C 57.050781 55.101562 59.503906 57.332031 57.472656 58.324219 C 55.996094 59.910156 54.378906 61.386719 52.546875 62.550781 C 53.003906 62.015625 54.34375 61.339844 52.992188 62.210938 C 52.457031 62.554688 50.671875 63.882812 52.09375 62.886719 C 51.28125 63.503906 51.878906 63.03125 51.351562 63.28125 C 50.839844 63.582031 49.339844 64.664062 49.421875 64.523438 C 51.167969 63.101562 52.96875 61.75 54.878906 60.558594 C 54.445312 60.945312 52.195312 62.574219 53.714844 61.203125 C 55.007812 60.128906 55.660156 58.503906 55.644531 56.847656 C 55.726562 54.316406 55.597656 51.78125 55.273438 49.269531 C 55.117188 47.625 55.503906 45.480469 57.3125 44.917969 C 59.507812 44.125 55.277344 47.390625 55.746094 45.242188 C 55.796875 43.636719 55.054688 41.992188 54.992188 40.335938 C 54.773438 38.488281 54.8125 36.613281 54.832031 34.761719 C 54.761719 32.90625 57.960938 32.40625 57.320312 34.664062 C 57.160156 36.09375 55.300781 37.921875 54.027344 36.46875 C 53.238281 35.101562 52.792969 33.320312 53.039062 31.742188 C 53.984375 30.132812 54.476562 28.214844 55.808594 26.855469 Z M 56 26.730469 "/>
<path style=" stroke:none;fill-rule:nonzero;fill:rgb(81.960784%,76.078431%,76.078431%);fill-opacity:1;" d="M 18.824219 192.839844 C 28.3125 194.492188 37.828125 196.058594 47.402344 197.054688 C 58.746094 199.601562 69.976562 204.605469 81.851562 202.996094 C 89.773438 202.964844 98.113281 200.378906 105.605469 197.09375 C 105.996094 206.269531 101.40625 200.429688 102.316406 199.734375 C 111.953125 205.230469 100.742188 199.5 100.824219 199.464844 C 98.714844 200.667969 119.203125 197.355469 118.117188 196.1875 C 122.460938 192.097656 117.867188 192.625 123.628906 191.222656 C 123.203125 193.96875 115.484375 196.824219 120.820312 193.179688 C 124.410156 190.207031 128.226562 187.515625 132.117188 184.949219 C 130.59375 186.390625 123.796875 190.929688 128.195312 187.175781 C 129.464844 185.085938 135.03125 183.078125 131.304688 186.421875 C 129.636719 188.136719 126.9375 190.703125 130.488281 187.675781 C 131.789062 186.453125 136.066406 184.402344 132.65625 187.140625 C 131.332031 188.316406 126.21875 191.820312 126.902344 190.976562 C 128.558594 189.527344 132.21875 187.554688 128.632812 190.367188 C 123.339844 194.941406 118.167969 202.96875 110.996094 204.0625 C 112.417969 201.359375 117.339844 195.144531 118.289062 194.703125 C 114.640625 198.359375 113.714844 203.285156 109.371094 206.089844 C 102.972656 208.6875 112.996094 207.339844 95.5625 212.351562 C 87.53125 214.769531 79.019531 210.941406 70.773438 211.316406 C 62.855469 211.734375 57.140625 208.542969 49.660156 206.089844 C 44.007812 204.328125 36.691406 202.523438 30.707031 202.664062 C 24.289062 202.136719 17.507812 202.074219 11.140625 201.183594 C 10.191406 196.410156 17.03125 196.210938 18.824219 192.839844 Z M 18.824219 192.839844 "/>
<path style="fill:none;stroke-width:22;stroke-linecap:round;stroke-linejoin:bevel;stroke:rgb(0%,0%,0%);stroke-opacity:1;stroke-miterlimit:4;" d="M -1054.344038 -473.647599 L -1217.390684 -406.247485 L -1234.795298 -41.023459 L -1332.601666 280.713124 L -1295.657398 621.997367 L -1300.008552 850.279328 L -1071.748652 874.191999 C -1071.748652 874.191999 -848.731758 954.334692 -736.953053 935.058151 C -632.255107 917.001644 -460.560205 776.29103 -460.560205 776.29103 L -570.014691 854.481668 L -267.379793 848.083266 L -295.648779 371.998796 L -247.813114 152.446858 L -356.673033 -411.127622 L -630.444378 -454.072827 L -684.79326 -204.074257 L -689.117388 -75.807991 C -689.117388 -75.807991 -762.168123 -32.374772 -802.868977 -31.344521 C -840.67807 -30.395606 -906.161581 -62.929852 -910.512735 -67.267751 C -914.863888 -71.605651 -917.377288 -312.765751 -917.377288 -312.765751 Z M -1089.126241 -419.288296 L -1084.775088 -412.781446 L -1046.047117 -390.359928 L -1015.210681 -323.637612 L -995.644002 -158.417865 L -1037.66912 -109.996061 L -1121.746381 -84.510902 L -1162.852621 -210.553994 L -1165.744382 -334.699255 Z M -478.262103 -362.760043 L -413.04885 -297.69155 L -409.076058 -169.886186 L -473.91095 -49.72637 L -578.25756 -149.742066 L -541.313293 -354.084244 Z M -478.262103 -362.760043 " transform="matrix(0.144538,0,0,0.144079,199.396491,78.215304)"/>
<path style="fill:none;stroke-width:20.625;stroke-linecap:round;stroke-linejoin:bevel;stroke:rgb(0%,0%,0%);stroke-opacity:1;stroke-miterlimit:4;" d="M -1016.976655 -386.98261 C -1016.976655 -386.98261 -921.001285 -313.526382 -923.18024 -311.340487 C -925.359195 -309.18001 -910.10651 -272.172304 -910.10651 -272.172304 " transform="matrix(0.154174,0,0,0.153684,199.396491,78.215304)"/>
<path style="fill:none;stroke-width:20.625;stroke-linecap:round;stroke-linejoin:bevel;stroke:rgb(0%,0%,0%);stroke-opacity:1;stroke-miterlimit:4;" d="M -507.481217 -331.953982 L -561.752401 -302.647743 L -576.97975 -237.325076 L -576.97975 -209.010114 " transform="matrix(0.154174,0,0,0.153684,199.396491,78.215304)"/>
<path style="fill:none;stroke-width:20.625;stroke-linecap:round;stroke-linejoin:bevel;stroke:rgb(0%,0%,0%);stroke-opacity:1;stroke-miterlimit:4;" d="M -940.586544 801.254494 L -1004.764372 819.555008 L -1062.506682 816.479505 " transform="matrix(0.154174,0,0,0.153684,199.396491,78.215304)"/>
<path style="fill:none;stroke-width:17.8125;stroke-linecap:round;stroke-linejoin:bevel;stroke:rgb(0%,0%,0%);stroke-opacity:1;stroke-miterlimit:4;" d="M -916.643375 655.358732 L -827.35689 753.342732 " transform="matrix(0.154174,0,0,0.153684,199.396491,78.215304)"/>
<path style="fill:none;stroke-width:17.8125;stroke-linecap:round;stroke-linejoin:bevel;stroke:rgb(0%,0%,0%);stroke-opacity:1;stroke-miterlimit:4;" d="M -753.348428 622.697398 L -755.527383 746.810466 L -753.348428 746.810466 " transform="matrix(0.154174,0,0,0.153684,199.396491,78.215304)"/>
<path style="fill:none;stroke-width:17.8125;stroke-linecap:round;stroke-linejoin:bevel;stroke:rgb(0%,0%,0%);stroke-opacity:1;stroke-miterlimit:4;" d="M -648.834594 648.826465 L -698.899887 759.874999 " transform="matrix(0.154174,0,0,0.153684,199.396491,78.215304)"/>
<path style="fill:none;stroke-width:17.8125;stroke-linecap:round;stroke-linejoin:bevel;stroke:rgb(0%,0%,0%);stroke-opacity:1;stroke-miterlimit:4;" d="M -485.539647 269.980414 L -496.409085 465.948415 L -509.482816 553.02836 L -500.766995 637.947827 L -574.800795 716.335027 " transform="matrix(0.154174,0,0,0.153684,199.396491,78.215304)"/>
<path style="fill:none;stroke-width:17.8125;stroke-linecap:round;stroke-linejoin:bevel;stroke:rgb(0%,0%,0%);stroke-opacity:1;stroke-miterlimit:4;" d="M -354.903689 337.488976 L -350.545778 459.416148 L -359.261599 603.100598 L -452.880657 674.955532 " transform="matrix(0.154174,0,0,0.153684,199.396491,78.215304)"/>
</g>
</svg>
